<mxfile host="app.diagrams.net" modified="2020-11-15T10:53:12.068Z" agent="5.0 (Macintosh; Intel Mac OS X 10_15_6) AppleWebKit/537.36 (KHTML, like Gecko) Chrome/86.0.4240.198 Safari/537.36" etag="upBKZBMVEXF_MsbY1uXW" version="13.8.8" type="github">
  <diagram id="7ces0kaBozy527UQlb_b" name="第 1 页">
    <mxGraphModel dx="2834" dy="385" grid="1" gridSize="10" guides="1" tooltips="1" connect="1" arrows="1" fold="1" page="1" pageScale="1" pageWidth="827" pageHeight="1169" math="0" shadow="0">
      <root>
        <mxCell id="0" />
        <mxCell id="1" parent="0" />
        <mxCell id="DA8I_6xMAiAlv4DQ0YJ2-1" value="A" style="ellipse;whiteSpace=wrap;html=1;aspect=fixed;" vertex="1" parent="1">
          <mxGeometry x="340" y="25" width="20" height="20" as="geometry" />
        </mxCell>
        <mxCell id="DA8I_6xMAiAlv4DQ0YJ2-7" style="edgeStyle=none;rounded=0;orthogonalLoop=1;jettySize=auto;html=1;startArrow=none;startFill=0;endArrow=none;endFill=0;entryX=0.5;entryY=1;entryDx=0;entryDy=0;" edge="1" parent="1" source="DA8I_6xMAiAlv4DQ0YJ2-2" target="DA8I_6xMAiAlv4DQ0YJ2-1">
          <mxGeometry relative="1" as="geometry">
            <mxPoint x="450" y="80" as="targetPoint" />
          </mxGeometry>
        </mxCell>
        <mxCell id="DA8I_6xMAiAlv4DQ0YJ2-17" value="1" style="edgeLabel;html=1;align=center;verticalAlign=middle;resizable=0;points=[];" vertex="1" connectable="0" parent="DA8I_6xMAiAlv4DQ0YJ2-7">
          <mxGeometry y="-1" relative="1" as="geometry">
            <mxPoint as="offset" />
          </mxGeometry>
        </mxCell>
        <mxCell id="DA8I_6xMAiAlv4DQ0YJ2-13" style="edgeStyle=none;rounded=0;orthogonalLoop=1;jettySize=auto;html=1;entryX=0.5;entryY=0;entryDx=0;entryDy=0;startArrow=none;startFill=0;endArrow=none;endFill=0;" edge="1" parent="1" source="DA8I_6xMAiAlv4DQ0YJ2-2" target="DA8I_6xMAiAlv4DQ0YJ2-9">
          <mxGeometry relative="1" as="geometry" />
        </mxCell>
        <mxCell id="DA8I_6xMAiAlv4DQ0YJ2-18" value="2" style="edgeLabel;html=1;align=center;verticalAlign=middle;resizable=0;points=[];" vertex="1" connectable="0" parent="DA8I_6xMAiAlv4DQ0YJ2-13">
          <mxGeometry x="0.2434" relative="1" as="geometry">
            <mxPoint as="offset" />
          </mxGeometry>
        </mxCell>
        <mxCell id="DA8I_6xMAiAlv4DQ0YJ2-14" style="edgeStyle=none;rounded=0;orthogonalLoop=1;jettySize=auto;html=1;entryX=1;entryY=0;entryDx=0;entryDy=0;startArrow=none;startFill=0;endArrow=none;endFill=0;" edge="1" parent="1" source="DA8I_6xMAiAlv4DQ0YJ2-2" target="DA8I_6xMAiAlv4DQ0YJ2-10">
          <mxGeometry relative="1" as="geometry" />
        </mxCell>
        <mxCell id="DA8I_6xMAiAlv4DQ0YJ2-19" value="3" style="edgeLabel;html=1;align=center;verticalAlign=middle;resizable=0;points=[];" vertex="1" connectable="0" parent="DA8I_6xMAiAlv4DQ0YJ2-14">
          <mxGeometry x="-0.0143" y="1" relative="1" as="geometry">
            <mxPoint as="offset" />
          </mxGeometry>
        </mxCell>
        <mxCell id="DA8I_6xMAiAlv4DQ0YJ2-15" style="edgeStyle=none;rounded=0;orthogonalLoop=1;jettySize=auto;html=1;entryX=0.5;entryY=0;entryDx=0;entryDy=0;startArrow=none;startFill=0;endArrow=none;endFill=0;" edge="1" parent="1" source="DA8I_6xMAiAlv4DQ0YJ2-2" target="DA8I_6xMAiAlv4DQ0YJ2-11">
          <mxGeometry relative="1" as="geometry" />
        </mxCell>
        <mxCell id="DA8I_6xMAiAlv4DQ0YJ2-20" value="4" style="edgeLabel;html=1;align=center;verticalAlign=middle;resizable=0;points=[];" vertex="1" connectable="0" parent="DA8I_6xMAiAlv4DQ0YJ2-15">
          <mxGeometry x="0.1193" y="1" relative="1" as="geometry">
            <mxPoint as="offset" />
          </mxGeometry>
        </mxCell>
        <mxCell id="DA8I_6xMAiAlv4DQ0YJ2-16" style="edgeStyle=none;rounded=0;orthogonalLoop=1;jettySize=auto;html=1;entryX=0.5;entryY=0;entryDx=0;entryDy=0;startArrow=none;startFill=0;endArrow=none;endFill=0;" edge="1" parent="1" source="DA8I_6xMAiAlv4DQ0YJ2-2" target="DA8I_6xMAiAlv4DQ0YJ2-12">
          <mxGeometry relative="1" as="geometry" />
        </mxCell>
        <mxCell id="DA8I_6xMAiAlv4DQ0YJ2-21" value="5" style="edgeLabel;html=1;align=center;verticalAlign=middle;resizable=0;points=[];" vertex="1" connectable="0" parent="DA8I_6xMAiAlv4DQ0YJ2-16">
          <mxGeometry x="0.2345" y="4" relative="1" as="geometry">
            <mxPoint as="offset" />
          </mxGeometry>
        </mxCell>
        <mxCell id="DA8I_6xMAiAlv4DQ0YJ2-6" style="edgeStyle=none;rounded=0;orthogonalLoop=1;jettySize=auto;html=1;entryX=0;entryY=1;entryDx=0;entryDy=0;startArrow=none;startFill=0;endArrow=none;endFill=0;" edge="1" parent="1" source="DA8I_6xMAiAlv4DQ0YJ2-1" target="DA8I_6xMAiAlv4DQ0YJ2-1">
          <mxGeometry relative="1" as="geometry" />
        </mxCell>
        <mxCell id="DA8I_6xMAiAlv4DQ0YJ2-12" value="F" style="ellipse;whiteSpace=wrap;html=1;aspect=fixed;" vertex="1" parent="1">
          <mxGeometry x="939" y="120" width="20" height="20" as="geometry" />
        </mxCell>
        <mxCell id="DA8I_6xMAiAlv4DQ0YJ2-25" value="" style="group" vertex="1" connectable="0" parent="1">
          <mxGeometry x="55" y="130" width="46" height="20" as="geometry" />
        </mxCell>
        <mxCell id="DA8I_6xMAiAlv4DQ0YJ2-9" value="C" style="ellipse;whiteSpace=wrap;html=1;aspect=fixed;" vertex="1" parent="DA8I_6xMAiAlv4DQ0YJ2-25">
          <mxGeometry x="26" width="20" height="20" as="geometry" />
        </mxCell>
        <mxCell id="DA8I_6xMAiAlv4DQ0YJ2-22" value="20" style="text;html=1;align=center;verticalAlign=middle;resizable=0;points=[];autosize=1;" vertex="1" parent="DA8I_6xMAiAlv4DQ0YJ2-25">
          <mxGeometry width="30" height="20" as="geometry" />
        </mxCell>
        <mxCell id="DA8I_6xMAiAlv4DQ0YJ2-27" value="" style="group" vertex="1" connectable="0" parent="1">
          <mxGeometry x="317" y="120" width="45" height="20" as="geometry" />
        </mxCell>
        <mxCell id="DA8I_6xMAiAlv4DQ0YJ2-10" value="D" style="ellipse;whiteSpace=wrap;html=1;aspect=fixed;" vertex="1" parent="DA8I_6xMAiAlv4DQ0YJ2-27">
          <mxGeometry x="25" width="20" height="20" as="geometry" />
        </mxCell>
        <mxCell id="DA8I_6xMAiAlv4DQ0YJ2-26" value="30" style="text;html=1;align=center;verticalAlign=middle;resizable=0;points=[];autosize=1;" vertex="1" parent="DA8I_6xMAiAlv4DQ0YJ2-27">
          <mxGeometry width="30" height="20" as="geometry" />
        </mxCell>
        <mxCell id="DA8I_6xMAiAlv4DQ0YJ2-29" value="11" style="text;html=1;align=center;verticalAlign=middle;resizable=0;points=[];autosize=1;" vertex="1" parent="1">
          <mxGeometry x="914" y="120" width="30" height="20" as="geometry" />
        </mxCell>
        <mxCell id="DA8I_6xMAiAlv4DQ0YJ2-32" value="" style="group;fontColor=#FF1947;" vertex="1" connectable="0" parent="1">
          <mxGeometry x="340" y="70" width="37" height="20" as="geometry" />
        </mxCell>
        <mxCell id="DA8I_6xMAiAlv4DQ0YJ2-5" style="edgeStyle=none;rounded=0;orthogonalLoop=1;jettySize=auto;html=1;exitX=0.5;exitY=0;exitDx=0;exitDy=0;startArrow=none;startFill=0;endArrow=none;endFill=0;" edge="1" parent="DA8I_6xMAiAlv4DQ0YJ2-32" source="DA8I_6xMAiAlv4DQ0YJ2-2">
          <mxGeometry relative="1" as="geometry">
            <mxPoint x="10" y="20" as="targetPoint" />
          </mxGeometry>
        </mxCell>
        <mxCell id="DA8I_6xMAiAlv4DQ0YJ2-2" value="B" style="ellipse;whiteSpace=wrap;html=1;aspect=fixed;" vertex="1" parent="DA8I_6xMAiAlv4DQ0YJ2-32">
          <mxGeometry width="20" height="20" as="geometry" />
        </mxCell>
        <mxCell id="DA8I_6xMAiAlv4DQ0YJ2-31" value="&lt;font color=&quot;#ff173e&quot;&gt;1&lt;/font&gt;" style="text;html=1;align=center;verticalAlign=middle;resizable=0;points=[];autosize=1;" vertex="1" parent="DA8I_6xMAiAlv4DQ0YJ2-32">
          <mxGeometry x="17" width="20" height="20" as="geometry" />
        </mxCell>
        <mxCell id="DA8I_6xMAiAlv4DQ0YJ2-37" value="" style="group" vertex="1" connectable="0" parent="1">
          <mxGeometry x="612.5" y="120" width="59" height="20" as="geometry" />
        </mxCell>
        <mxCell id="DA8I_6xMAiAlv4DQ0YJ2-11" value="E" style="ellipse;whiteSpace=wrap;html=1;aspect=fixed;" vertex="1" parent="DA8I_6xMAiAlv4DQ0YJ2-37">
          <mxGeometry x="23" width="20" height="20" as="geometry" />
        </mxCell>
        <mxCell id="DA8I_6xMAiAlv4DQ0YJ2-33" value="" style="group" vertex="1" connectable="0" parent="DA8I_6xMAiAlv4DQ0YJ2-37">
          <mxGeometry width="59" height="20" as="geometry" />
        </mxCell>
        <mxCell id="DA8I_6xMAiAlv4DQ0YJ2-28" value="10" style="text;html=1;align=center;verticalAlign=middle;resizable=0;points=[];autosize=1;" vertex="1" parent="DA8I_6xMAiAlv4DQ0YJ2-33">
          <mxGeometry width="30" height="20" as="geometry" />
        </mxCell>
        <mxCell id="DA8I_6xMAiAlv4DQ0YJ2-30" value="2" style="text;html=1;align=center;verticalAlign=middle;resizable=0;points=[];autosize=1;" vertex="1" parent="DA8I_6xMAiAlv4DQ0YJ2-33">
          <mxGeometry x="39" width="20" height="20" as="geometry" />
        </mxCell>
        <mxCell id="DA8I_6xMAiAlv4DQ0YJ2-38" value="" style="group" vertex="1" connectable="0" parent="1">
          <mxGeometry x="-9" y="180" width="74" height="30" as="geometry" />
        </mxCell>
        <mxCell id="DA8I_6xMAiAlv4DQ0YJ2-39" value="G" style="ellipse;whiteSpace=wrap;html=1;aspect=fixed;" vertex="1" parent="DA8I_6xMAiAlv4DQ0YJ2-38">
          <mxGeometry x="23" width="20" height="20" as="geometry" />
        </mxCell>
        <mxCell id="DA8I_6xMAiAlv4DQ0YJ2-40" value="" style="group" vertex="1" connectable="0" parent="DA8I_6xMAiAlv4DQ0YJ2-38">
          <mxGeometry width="74" height="30" as="geometry" />
        </mxCell>
        <mxCell id="DA8I_6xMAiAlv4DQ0YJ2-41" value="36" style="text;html=1;align=center;verticalAlign=middle;resizable=0;points=[];autosize=1;" vertex="1" parent="DA8I_6xMAiAlv4DQ0YJ2-40">
          <mxGeometry width="30" height="20" as="geometry" />
        </mxCell>
        <mxCell id="DA8I_6xMAiAlv4DQ0YJ2-43" style="edgeStyle=none;rounded=0;orthogonalLoop=1;jettySize=auto;html=1;entryX=1.067;entryY=0;entryDx=0;entryDy=0;entryPerimeter=0;startArrow=none;startFill=0;endArrow=none;endFill=0;" edge="1" parent="1" source="DA8I_6xMAiAlv4DQ0YJ2-9" target="DA8I_6xMAiAlv4DQ0YJ2-41">
          <mxGeometry relative="1" as="geometry" />
        </mxCell>
        <mxCell id="DA8I_6xMAiAlv4DQ0YJ2-128" value="3" style="edgeLabel;html=1;align=center;verticalAlign=middle;resizable=0;points=[];" vertex="1" connectable="0" parent="DA8I_6xMAiAlv4DQ0YJ2-43">
          <mxGeometry x="0.4379" y="-1" relative="1" as="geometry">
            <mxPoint y="-1" as="offset" />
          </mxGeometry>
        </mxCell>
        <mxCell id="DA8I_6xMAiAlv4DQ0YJ2-44" value="" style="group" vertex="1" connectable="0" parent="1">
          <mxGeometry x="51" y="180" width="74" height="30" as="geometry" />
        </mxCell>
        <mxCell id="DA8I_6xMAiAlv4DQ0YJ2-45" value="H" style="ellipse;whiteSpace=wrap;html=1;aspect=fixed;" vertex="1" parent="DA8I_6xMAiAlv4DQ0YJ2-44">
          <mxGeometry x="23" width="20" height="20" as="geometry" />
        </mxCell>
        <mxCell id="DA8I_6xMAiAlv4DQ0YJ2-46" value="" style="group" vertex="1" connectable="0" parent="DA8I_6xMAiAlv4DQ0YJ2-44">
          <mxGeometry width="74" height="30" as="geometry" />
        </mxCell>
        <mxCell id="DA8I_6xMAiAlv4DQ0YJ2-47" value="24" style="text;html=1;align=center;verticalAlign=middle;resizable=0;points=[];autosize=1;" vertex="1" parent="DA8I_6xMAiAlv4DQ0YJ2-46">
          <mxGeometry width="30" height="20" as="geometry" />
        </mxCell>
        <mxCell id="DA8I_6xMAiAlv4DQ0YJ2-49" value="" style="group" vertex="1" connectable="0" parent="1">
          <mxGeometry x="111" y="180" width="74" height="30" as="geometry" />
        </mxCell>
        <mxCell id="DA8I_6xMAiAlv4DQ0YJ2-50" value="I" style="ellipse;whiteSpace=wrap;html=1;aspect=fixed;" vertex="1" parent="DA8I_6xMAiAlv4DQ0YJ2-49">
          <mxGeometry x="23" width="20" height="20" as="geometry" />
        </mxCell>
        <mxCell id="DA8I_6xMAiAlv4DQ0YJ2-51" value="" style="group" vertex="1" connectable="0" parent="DA8I_6xMAiAlv4DQ0YJ2-49">
          <mxGeometry width="74" height="30" as="geometry" />
        </mxCell>
        <mxCell id="DA8I_6xMAiAlv4DQ0YJ2-52" value="22" style="text;html=1;align=center;verticalAlign=middle;resizable=0;points=[];autosize=1;" vertex="1" parent="DA8I_6xMAiAlv4DQ0YJ2-51">
          <mxGeometry width="30" height="20" as="geometry" />
        </mxCell>
        <mxCell id="DA8I_6xMAiAlv4DQ0YJ2-54" style="edgeStyle=none;rounded=0;orthogonalLoop=1;jettySize=auto;html=1;entryX=1.067;entryY=0.2;entryDx=0;entryDy=0;entryPerimeter=0;startArrow=none;startFill=0;endArrow=none;endFill=0;" edge="1" parent="1" source="DA8I_6xMAiAlv4DQ0YJ2-9" target="DA8I_6xMAiAlv4DQ0YJ2-47">
          <mxGeometry relative="1" as="geometry" />
        </mxCell>
        <mxCell id="DA8I_6xMAiAlv4DQ0YJ2-129" value="4" style="edgeLabel;html=1;align=center;verticalAlign=middle;resizable=0;points=[];" vertex="1" connectable="0" parent="DA8I_6xMAiAlv4DQ0YJ2-54">
          <mxGeometry x="-0.2206" y="-1" relative="1" as="geometry">
            <mxPoint as="offset" />
          </mxGeometry>
        </mxCell>
        <mxCell id="DA8I_6xMAiAlv4DQ0YJ2-55" style="edgeStyle=none;rounded=0;orthogonalLoop=1;jettySize=auto;html=1;entryX=1.1;entryY=-0.05;entryDx=0;entryDy=0;entryPerimeter=0;startArrow=none;startFill=0;endArrow=none;endFill=0;" edge="1" parent="1" source="DA8I_6xMAiAlv4DQ0YJ2-9" target="DA8I_6xMAiAlv4DQ0YJ2-52">
          <mxGeometry relative="1" as="geometry" />
        </mxCell>
        <mxCell id="DA8I_6xMAiAlv4DQ0YJ2-130" value="5" style="edgeLabel;html=1;align=center;verticalAlign=middle;resizable=0;points=[];" vertex="1" connectable="0" parent="DA8I_6xMAiAlv4DQ0YJ2-55">
          <mxGeometry x="0.0174" y="-2" relative="1" as="geometry">
            <mxPoint x="1" as="offset" />
          </mxGeometry>
        </mxCell>
        <mxCell id="DA8I_6xMAiAlv4DQ0YJ2-56" value="" style="group" vertex="1" connectable="0" parent="1">
          <mxGeometry x="224" y="180" width="111" height="30" as="geometry" />
        </mxCell>
        <mxCell id="DA8I_6xMAiAlv4DQ0YJ2-57" value="J" style="ellipse;whiteSpace=wrap;html=1;aspect=fixed;" vertex="1" parent="DA8I_6xMAiAlv4DQ0YJ2-56">
          <mxGeometry x="60" width="20" height="20" as="geometry" />
        </mxCell>
        <mxCell id="DA8I_6xMAiAlv4DQ0YJ2-59" value="46" style="text;html=1;align=center;verticalAlign=middle;resizable=0;points=[];autosize=1;" vertex="1" parent="DA8I_6xMAiAlv4DQ0YJ2-56">
          <mxGeometry x="36" width="30" height="20" as="geometry" />
        </mxCell>
        <mxCell id="DA8I_6xMAiAlv4DQ0YJ2-61" value="" style="group" vertex="1" connectable="0" parent="1">
          <mxGeometry x="317" y="180" width="74" height="32" as="geometry" />
        </mxCell>
        <mxCell id="DA8I_6xMAiAlv4DQ0YJ2-62" value="K" style="ellipse;whiteSpace=wrap;html=1;aspect=fixed;" vertex="1" parent="DA8I_6xMAiAlv4DQ0YJ2-61">
          <mxGeometry x="23" width="20" height="20" as="geometry" />
        </mxCell>
        <mxCell id="DA8I_6xMAiAlv4DQ0YJ2-63" value="" style="group" vertex="1" connectable="0" parent="DA8I_6xMAiAlv4DQ0YJ2-61">
          <mxGeometry width="74" height="32" as="geometry" />
        </mxCell>
        <mxCell id="DA8I_6xMAiAlv4DQ0YJ2-64" value="36" style="text;html=1;align=center;verticalAlign=middle;resizable=0;points=[];autosize=1;" vertex="1" parent="DA8I_6xMAiAlv4DQ0YJ2-63">
          <mxGeometry width="30" height="20" as="geometry" />
        </mxCell>
        <mxCell id="DA8I_6xMAiAlv4DQ0YJ2-420" value="31" style="text;html=1;align=center;verticalAlign=middle;resizable=0;points=[];autosize=1;fontColor=#000000;" vertex="1" parent="DA8I_6xMAiAlv4DQ0YJ2-63">
          <mxGeometry x="30" y="12" width="30" height="20" as="geometry" />
        </mxCell>
        <mxCell id="DA8I_6xMAiAlv4DQ0YJ2-66" value="" style="group" vertex="1" connectable="0" parent="1">
          <mxGeometry x="377" y="180" width="74" height="30" as="geometry" />
        </mxCell>
        <mxCell id="DA8I_6xMAiAlv4DQ0YJ2-67" value="L" style="ellipse;whiteSpace=wrap;html=1;aspect=fixed;" vertex="1" parent="DA8I_6xMAiAlv4DQ0YJ2-66">
          <mxGeometry x="23" width="20" height="20" as="geometry" />
        </mxCell>
        <mxCell id="DA8I_6xMAiAlv4DQ0YJ2-68" value="" style="group" vertex="1" connectable="0" parent="DA8I_6xMAiAlv4DQ0YJ2-66">
          <mxGeometry width="74" height="30" as="geometry" />
        </mxCell>
        <mxCell id="DA8I_6xMAiAlv4DQ0YJ2-69" value="37" style="text;html=1;align=center;verticalAlign=middle;resizable=0;points=[];autosize=1;" vertex="1" parent="DA8I_6xMAiAlv4DQ0YJ2-68">
          <mxGeometry width="30" height="20" as="geometry" />
        </mxCell>
        <mxCell id="DA8I_6xMAiAlv4DQ0YJ2-71" style="edgeStyle=none;rounded=0;orthogonalLoop=1;jettySize=auto;html=1;entryX=-0.2;entryY=0.05;entryDx=0;entryDy=0;entryPerimeter=0;startArrow=none;startFill=0;endArrow=none;endFill=0;" edge="1" parent="1" source="DA8I_6xMAiAlv4DQ0YJ2-10">
          <mxGeometry relative="1" as="geometry">
            <mxPoint x="296" y="181" as="targetPoint" />
          </mxGeometry>
        </mxCell>
        <mxCell id="DA8I_6xMAiAlv4DQ0YJ2-131" value="2" style="edgeLabel;html=1;align=center;verticalAlign=middle;resizable=0;points=[];" vertex="1" connectable="0" parent="DA8I_6xMAiAlv4DQ0YJ2-71">
          <mxGeometry x="0.2652" y="-3" relative="1" as="geometry">
            <mxPoint x="-1" as="offset" />
          </mxGeometry>
        </mxCell>
        <mxCell id="DA8I_6xMAiAlv4DQ0YJ2-73" style="edgeStyle=none;rounded=0;orthogonalLoop=1;jettySize=auto;html=1;entryX=1.133;entryY=0.1;entryDx=0;entryDy=0;entryPerimeter=0;startArrow=none;startFill=0;endArrow=none;endFill=0;" edge="1" parent="1" source="DA8I_6xMAiAlv4DQ0YJ2-10" target="DA8I_6xMAiAlv4DQ0YJ2-64">
          <mxGeometry relative="1" as="geometry" />
        </mxCell>
        <mxCell id="DA8I_6xMAiAlv4DQ0YJ2-132" value="4" style="edgeLabel;html=1;align=center;verticalAlign=middle;resizable=0;points=[];" vertex="1" connectable="0" parent="DA8I_6xMAiAlv4DQ0YJ2-73">
          <mxGeometry x="0.0004" relative="1" as="geometry">
            <mxPoint as="offset" />
          </mxGeometry>
        </mxCell>
        <mxCell id="DA8I_6xMAiAlv4DQ0YJ2-74" style="edgeStyle=none;rounded=0;orthogonalLoop=1;jettySize=auto;html=1;entryX=1.067;entryY=0.1;entryDx=0;entryDy=0;entryPerimeter=0;startArrow=none;startFill=0;endArrow=none;endFill=0;" edge="1" parent="1" source="DA8I_6xMAiAlv4DQ0YJ2-10" target="DA8I_6xMAiAlv4DQ0YJ2-69">
          <mxGeometry relative="1" as="geometry" />
        </mxCell>
        <mxCell id="DA8I_6xMAiAlv4DQ0YJ2-133" value="5" style="edgeLabel;html=1;align=center;verticalAlign=middle;resizable=0;points=[];" vertex="1" connectable="0" parent="DA8I_6xMAiAlv4DQ0YJ2-74">
          <mxGeometry x="0.0542" y="2" relative="1" as="geometry">
            <mxPoint as="offset" />
          </mxGeometry>
        </mxCell>
        <mxCell id="DA8I_6xMAiAlv4DQ0YJ2-75" value="" style="group" vertex="1" connectable="0" parent="1">
          <mxGeometry x="562.5" y="180" width="59" height="20" as="geometry" />
        </mxCell>
        <mxCell id="DA8I_6xMAiAlv4DQ0YJ2-76" value="M" style="ellipse;whiteSpace=wrap;html=1;aspect=fixed;" vertex="1" parent="DA8I_6xMAiAlv4DQ0YJ2-75">
          <mxGeometry x="23" width="20" height="20" as="geometry" />
        </mxCell>
        <mxCell id="DA8I_6xMAiAlv4DQ0YJ2-77" value="" style="group" vertex="1" connectable="0" parent="DA8I_6xMAiAlv4DQ0YJ2-75">
          <mxGeometry width="59" height="20" as="geometry" />
        </mxCell>
        <mxCell id="DA8I_6xMAiAlv4DQ0YJ2-78" value="14" style="text;html=1;align=center;verticalAlign=middle;resizable=0;points=[];autosize=1;" vertex="1" parent="DA8I_6xMAiAlv4DQ0YJ2-77">
          <mxGeometry width="30" height="20" as="geometry" />
        </mxCell>
        <mxCell id="DA8I_6xMAiAlv4DQ0YJ2-79" value="5" style="text;html=1;align=center;verticalAlign=middle;resizable=0;points=[];autosize=1;" vertex="1" parent="DA8I_6xMAiAlv4DQ0YJ2-77">
          <mxGeometry x="39" width="20" height="20" as="geometry" />
        </mxCell>
        <mxCell id="DA8I_6xMAiAlv4DQ0YJ2-80" value="" style="group" vertex="1" connectable="0" parent="1">
          <mxGeometry x="622.5" y="180" width="74" height="30" as="geometry" />
        </mxCell>
        <mxCell id="DA8I_6xMAiAlv4DQ0YJ2-81" value="N" style="ellipse;whiteSpace=wrap;html=1;aspect=fixed;" vertex="1" parent="DA8I_6xMAiAlv4DQ0YJ2-80">
          <mxGeometry x="23" width="20" height="20" as="geometry" />
        </mxCell>
        <mxCell id="DA8I_6xMAiAlv4DQ0YJ2-82" value="" style="group" vertex="1" connectable="0" parent="DA8I_6xMAiAlv4DQ0YJ2-80">
          <mxGeometry width="74" height="30" as="geometry" />
        </mxCell>
        <mxCell id="DA8I_6xMAiAlv4DQ0YJ2-83" value="16" style="text;html=1;align=center;verticalAlign=middle;resizable=0;points=[];autosize=1;" vertex="1" parent="DA8I_6xMAiAlv4DQ0YJ2-82">
          <mxGeometry width="30" height="20" as="geometry" />
        </mxCell>
        <mxCell id="DA8I_6xMAiAlv4DQ0YJ2-85" value="" style="group" vertex="1" connectable="0" parent="1">
          <mxGeometry x="700.5" y="180" width="74" height="30" as="geometry" />
        </mxCell>
        <mxCell id="DA8I_6xMAiAlv4DQ0YJ2-86" value="O" style="ellipse;whiteSpace=wrap;html=1;aspect=fixed;" vertex="1" parent="DA8I_6xMAiAlv4DQ0YJ2-85">
          <mxGeometry x="23" width="20" height="20" as="geometry" />
        </mxCell>
        <mxCell id="DA8I_6xMAiAlv4DQ0YJ2-87" value="" style="group" vertex="1" connectable="0" parent="DA8I_6xMAiAlv4DQ0YJ2-85">
          <mxGeometry width="74" height="30" as="geometry" />
        </mxCell>
        <mxCell id="DA8I_6xMAiAlv4DQ0YJ2-88" value="22" style="text;html=1;align=center;verticalAlign=middle;resizable=0;points=[];autosize=1;" vertex="1" parent="DA8I_6xMAiAlv4DQ0YJ2-87">
          <mxGeometry width="30" height="20" as="geometry" />
        </mxCell>
        <mxCell id="DA8I_6xMAiAlv4DQ0YJ2-91" style="edgeStyle=none;rounded=0;orthogonalLoop=1;jettySize=auto;html=1;entryX=-0.25;entryY=0;entryDx=0;entryDy=0;entryPerimeter=0;startArrow=none;startFill=0;endArrow=none;endFill=0;exitX=1.033;exitY=1;exitDx=0;exitDy=0;exitPerimeter=0;" edge="1" parent="1" source="DA8I_6xMAiAlv4DQ0YJ2-28" target="DA8I_6xMAiAlv4DQ0YJ2-79">
          <mxGeometry relative="1" as="geometry" />
        </mxCell>
        <mxCell id="DA8I_6xMAiAlv4DQ0YJ2-134" value="2" style="edgeLabel;html=1;align=center;verticalAlign=middle;resizable=0;points=[];" vertex="1" connectable="0" parent="DA8I_6xMAiAlv4DQ0YJ2-91">
          <mxGeometry x="0.2863" relative="1" as="geometry">
            <mxPoint as="offset" />
          </mxGeometry>
        </mxCell>
        <mxCell id="DA8I_6xMAiAlv4DQ0YJ2-92" style="edgeStyle=none;rounded=0;orthogonalLoop=1;jettySize=auto;html=1;entryX=1.1;entryY=0.2;entryDx=0;entryDy=0;entryPerimeter=0;startArrow=none;startFill=0;endArrow=none;endFill=0;exitX=1;exitY=1;exitDx=0;exitDy=0;exitPerimeter=0;" edge="1" parent="1" source="DA8I_6xMAiAlv4DQ0YJ2-28" target="DA8I_6xMAiAlv4DQ0YJ2-83">
          <mxGeometry relative="1" as="geometry">
            <mxPoint x="653.49" y="150" as="sourcePoint" />
            <mxPoint x="606.5" y="190" as="targetPoint" />
          </mxGeometry>
        </mxCell>
        <mxCell id="DA8I_6xMAiAlv4DQ0YJ2-135" value="3" style="edgeLabel;html=1;align=center;verticalAlign=middle;resizable=0;points=[];" vertex="1" connectable="0" parent="DA8I_6xMAiAlv4DQ0YJ2-92">
          <mxGeometry x="0.1192" y="-1" relative="1" as="geometry">
            <mxPoint as="offset" />
          </mxGeometry>
        </mxCell>
        <mxCell id="DA8I_6xMAiAlv4DQ0YJ2-93" style="edgeStyle=none;rounded=0;orthogonalLoop=1;jettySize=auto;html=1;entryX=1.033;entryY=0.05;entryDx=0;entryDy=0;entryPerimeter=0;startArrow=none;startFill=0;endArrow=none;endFill=0;" edge="1" parent="1" target="DA8I_6xMAiAlv4DQ0YJ2-88">
          <mxGeometry relative="1" as="geometry">
            <mxPoint x="642.5" y="140" as="sourcePoint" />
            <mxPoint x="616.5" y="200" as="targetPoint" />
          </mxGeometry>
        </mxCell>
        <mxCell id="DA8I_6xMAiAlv4DQ0YJ2-136" value="5" style="edgeLabel;html=1;align=center;verticalAlign=middle;resizable=0;points=[];" vertex="1" connectable="0" parent="DA8I_6xMAiAlv4DQ0YJ2-93">
          <mxGeometry x="0.198" y="3" relative="1" as="geometry">
            <mxPoint as="offset" />
          </mxGeometry>
        </mxCell>
        <mxCell id="DA8I_6xMAiAlv4DQ0YJ2-94" value="" style="group" vertex="1" connectable="0" parent="1">
          <mxGeometry x="857" y="180" width="59" height="20" as="geometry" />
        </mxCell>
        <mxCell id="DA8I_6xMAiAlv4DQ0YJ2-95" value="P" style="ellipse;whiteSpace=wrap;html=1;aspect=fixed;" vertex="1" parent="DA8I_6xMAiAlv4DQ0YJ2-94">
          <mxGeometry x="23" width="20" height="20" as="geometry" />
        </mxCell>
        <mxCell id="DA8I_6xMAiAlv4DQ0YJ2-96" value="" style="group" vertex="1" connectable="0" parent="DA8I_6xMAiAlv4DQ0YJ2-94">
          <mxGeometry width="59" height="20" as="geometry" />
        </mxCell>
        <mxCell id="DA8I_6xMAiAlv4DQ0YJ2-97" value="13" style="text;html=1;align=center;verticalAlign=middle;resizable=0;points=[];autosize=1;" vertex="1" parent="DA8I_6xMAiAlv4DQ0YJ2-96">
          <mxGeometry width="30" height="20" as="geometry" />
        </mxCell>
        <mxCell id="DA8I_6xMAiAlv4DQ0YJ2-98" value="4" style="text;html=1;align=center;verticalAlign=middle;resizable=0;points=[];autosize=1;" vertex="1" parent="DA8I_6xMAiAlv4DQ0YJ2-96">
          <mxGeometry x="39" width="20" height="20" as="geometry" />
        </mxCell>
        <mxCell id="DA8I_6xMAiAlv4DQ0YJ2-99" value="" style="group" vertex="1" connectable="0" parent="1">
          <mxGeometry x="917" y="180" width="74" height="30" as="geometry" />
        </mxCell>
        <mxCell id="DA8I_6xMAiAlv4DQ0YJ2-100" value="Q" style="ellipse;whiteSpace=wrap;html=1;aspect=fixed;" vertex="1" parent="DA8I_6xMAiAlv4DQ0YJ2-99">
          <mxGeometry x="23" width="20" height="20" as="geometry" />
        </mxCell>
        <mxCell id="DA8I_6xMAiAlv4DQ0YJ2-101" value="" style="group" vertex="1" connectable="0" parent="DA8I_6xMAiAlv4DQ0YJ2-99">
          <mxGeometry width="74" height="30" as="geometry" />
        </mxCell>
        <mxCell id="DA8I_6xMAiAlv4DQ0YJ2-102" value="18" style="text;html=1;align=center;verticalAlign=middle;resizable=0;points=[];autosize=1;" vertex="1" parent="DA8I_6xMAiAlv4DQ0YJ2-101">
          <mxGeometry width="30" height="20" as="geometry" />
        </mxCell>
        <mxCell id="DA8I_6xMAiAlv4DQ0YJ2-104" value="" style="group" vertex="1" connectable="0" parent="1">
          <mxGeometry x="977" y="180" width="74" height="30" as="geometry" />
        </mxCell>
        <mxCell id="DA8I_6xMAiAlv4DQ0YJ2-105" value="R" style="ellipse;whiteSpace=wrap;html=1;aspect=fixed;" vertex="1" parent="DA8I_6xMAiAlv4DQ0YJ2-104">
          <mxGeometry x="23" width="20" height="20" as="geometry" />
        </mxCell>
        <mxCell id="DA8I_6xMAiAlv4DQ0YJ2-106" value="" style="group" vertex="1" connectable="0" parent="DA8I_6xMAiAlv4DQ0YJ2-104">
          <mxGeometry width="74" height="30" as="geometry" />
        </mxCell>
        <mxCell id="DA8I_6xMAiAlv4DQ0YJ2-107" value="23" style="text;html=1;align=center;verticalAlign=middle;resizable=0;points=[];autosize=1;" vertex="1" parent="DA8I_6xMAiAlv4DQ0YJ2-106">
          <mxGeometry width="30" height="20" as="geometry" />
        </mxCell>
        <mxCell id="DA8I_6xMAiAlv4DQ0YJ2-109" value="3" style="text;html=1;align=center;verticalAlign=middle;resizable=0;points=[];autosize=1;" vertex="1" parent="1">
          <mxGeometry x="957" y="120" width="20" height="20" as="geometry" />
        </mxCell>
        <mxCell id="DA8I_6xMAiAlv4DQ0YJ2-110" style="edgeStyle=none;rounded=0;orthogonalLoop=1;jettySize=auto;html=1;entryX=0;entryY=0.95;entryDx=0;entryDy=0;entryPerimeter=0;startArrow=none;startFill=0;endArrow=none;endFill=0;" edge="1" parent="1" target="DA8I_6xMAiAlv4DQ0YJ2-109">
          <mxGeometry relative="1" as="geometry">
            <mxPoint x="887" y="180" as="sourcePoint" />
          </mxGeometry>
        </mxCell>
        <mxCell id="DA8I_6xMAiAlv4DQ0YJ2-137" value="2" style="edgeLabel;html=1;align=center;verticalAlign=middle;resizable=0;points=[];" vertex="1" connectable="0" parent="DA8I_6xMAiAlv4DQ0YJ2-110">
          <mxGeometry x="-0.0233" y="-1" relative="1" as="geometry">
            <mxPoint x="1" as="offset" />
          </mxGeometry>
        </mxCell>
        <mxCell id="DA8I_6xMAiAlv4DQ0YJ2-126" style="edgeStyle=none;rounded=0;orthogonalLoop=1;jettySize=auto;html=1;entryX=0.05;entryY=1.1;entryDx=0;entryDy=0;entryPerimeter=0;startArrow=none;startFill=0;endArrow=none;endFill=0;exitX=1.133;exitY=0.25;exitDx=0;exitDy=0;exitPerimeter=0;" edge="1" parent="1" source="DA8I_6xMAiAlv4DQ0YJ2-102" target="DA8I_6xMAiAlv4DQ0YJ2-109">
          <mxGeometry relative="1" as="geometry">
            <mxPoint x="897" y="190" as="sourcePoint" />
            <mxPoint x="957" y="149" as="targetPoint" />
          </mxGeometry>
        </mxCell>
        <mxCell id="DA8I_6xMAiAlv4DQ0YJ2-138" value="3" style="edgeLabel;html=1;align=center;verticalAlign=middle;resizable=0;points=[];" vertex="1" connectable="0" parent="DA8I_6xMAiAlv4DQ0YJ2-126">
          <mxGeometry x="-0.156" y="3" relative="1" as="geometry">
            <mxPoint as="offset" />
          </mxGeometry>
        </mxCell>
        <mxCell id="DA8I_6xMAiAlv4DQ0YJ2-127" style="edgeStyle=none;rounded=0;orthogonalLoop=1;jettySize=auto;html=1;entryX=0.15;entryY=1.05;entryDx=0;entryDy=0;entryPerimeter=0;startArrow=none;startFill=0;endArrow=none;endFill=0;exitX=1.1;exitY=0.05;exitDx=0;exitDy=0;exitPerimeter=0;" edge="1" parent="1" source="DA8I_6xMAiAlv4DQ0YJ2-107" target="DA8I_6xMAiAlv4DQ0YJ2-109">
          <mxGeometry relative="1" as="geometry">
            <mxPoint x="907" y="200" as="sourcePoint" />
            <mxPoint x="967" y="159" as="targetPoint" />
          </mxGeometry>
        </mxCell>
        <mxCell id="DA8I_6xMAiAlv4DQ0YJ2-139" value="4" style="edgeLabel;html=1;align=center;verticalAlign=middle;resizable=0;points=[];" vertex="1" connectable="0" parent="DA8I_6xMAiAlv4DQ0YJ2-127">
          <mxGeometry x="0.1788" y="1" relative="1" as="geometry">
            <mxPoint as="offset" />
          </mxGeometry>
        </mxCell>
        <mxCell id="DA8I_6xMAiAlv4DQ0YJ2-140" value="" style="group" vertex="1" connectable="0" parent="1">
          <mxGeometry x="-60" y="270" width="74" height="30" as="geometry" />
        </mxCell>
        <mxCell id="DA8I_6xMAiAlv4DQ0YJ2-141" value="G0" style="ellipse;whiteSpace=wrap;html=1;aspect=fixed;" vertex="1" parent="DA8I_6xMAiAlv4DQ0YJ2-140">
          <mxGeometry x="23" width="20" height="20" as="geometry" />
        </mxCell>
        <mxCell id="DA8I_6xMAiAlv4DQ0YJ2-142" value="" style="group" vertex="1" connectable="0" parent="DA8I_6xMAiAlv4DQ0YJ2-140">
          <mxGeometry width="74" height="30" as="geometry" />
        </mxCell>
        <mxCell id="DA8I_6xMAiAlv4DQ0YJ2-143" value="42" style="text;html=1;align=center;verticalAlign=middle;resizable=0;points=[];autosize=1;" vertex="1" parent="DA8I_6xMAiAlv4DQ0YJ2-142">
          <mxGeometry width="30" height="20" as="geometry" />
        </mxCell>
        <mxCell id="DA8I_6xMAiAlv4DQ0YJ2-146" value="" style="group" vertex="1" connectable="0" parent="1">
          <mxGeometry x="-10" y="270" width="74" height="30" as="geometry" />
        </mxCell>
        <mxCell id="DA8I_6xMAiAlv4DQ0YJ2-147" value="G1" style="ellipse;whiteSpace=wrap;html=1;aspect=fixed;" vertex="1" parent="DA8I_6xMAiAlv4DQ0YJ2-146">
          <mxGeometry x="23" width="20" height="20" as="geometry" />
        </mxCell>
        <mxCell id="DA8I_6xMAiAlv4DQ0YJ2-148" value="" style="group" vertex="1" connectable="0" parent="DA8I_6xMAiAlv4DQ0YJ2-146">
          <mxGeometry width="74" height="30" as="geometry" />
        </mxCell>
        <mxCell id="DA8I_6xMAiAlv4DQ0YJ2-149" value="43" style="text;html=1;align=center;verticalAlign=middle;resizable=0;points=[];autosize=1;" vertex="1" parent="DA8I_6xMAiAlv4DQ0YJ2-148">
          <mxGeometry width="30" height="20" as="geometry" />
        </mxCell>
        <mxCell id="DA8I_6xMAiAlv4DQ0YJ2-152" style="edgeStyle=none;rounded=0;orthogonalLoop=1;jettySize=auto;html=1;entryX=1;entryY=0.173;entryDx=0;entryDy=0;entryPerimeter=0;startArrow=none;startFill=0;endArrow=none;endFill=0;exitX=0.967;exitY=0.95;exitDx=0;exitDy=0;exitPerimeter=0;" edge="1" parent="1" source="DA8I_6xMAiAlv4DQ0YJ2-41" target="DA8I_6xMAiAlv4DQ0YJ2-143">
          <mxGeometry relative="1" as="geometry" />
        </mxCell>
        <mxCell id="DA8I_6xMAiAlv4DQ0YJ2-155" value="4" style="edgeLabel;html=1;align=center;verticalAlign=middle;resizable=0;points=[];" vertex="1" connectable="0" parent="DA8I_6xMAiAlv4DQ0YJ2-152">
          <mxGeometry x="-0.0733" y="-1" relative="1" as="geometry">
            <mxPoint as="offset" />
          </mxGeometry>
        </mxCell>
        <mxCell id="DA8I_6xMAiAlv4DQ0YJ2-153" style="edgeStyle=none;rounded=0;orthogonalLoop=1;jettySize=auto;html=1;entryX=1.1;entryY=0.073;entryDx=0;entryDy=0;entryPerimeter=0;startArrow=none;startFill=0;endArrow=none;endFill=0;exitX=1.067;exitY=1.1;exitDx=0;exitDy=0;exitPerimeter=0;" edge="1" parent="1" source="DA8I_6xMAiAlv4DQ0YJ2-41" target="DA8I_6xMAiAlv4DQ0YJ2-149">
          <mxGeometry relative="1" as="geometry">
            <mxPoint x="79.00999999999999" y="209" as="sourcePoint" />
            <mxPoint x="50" y="270.01" as="targetPoint" />
          </mxGeometry>
        </mxCell>
        <mxCell id="DA8I_6xMAiAlv4DQ0YJ2-156" value="5" style="edgeLabel;html=1;align=center;verticalAlign=middle;resizable=0;points=[];" vertex="1" connectable="0" parent="DA8I_6xMAiAlv4DQ0YJ2-153">
          <mxGeometry x="0.0225" y="1" relative="1" as="geometry">
            <mxPoint as="offset" />
          </mxGeometry>
        </mxCell>
        <mxCell id="DA8I_6xMAiAlv4DQ0YJ2-175" value="" style="group" vertex="1" connectable="0" parent="1">
          <mxGeometry x="40" y="270" width="74" height="30" as="geometry" />
        </mxCell>
        <mxCell id="DA8I_6xMAiAlv4DQ0YJ2-176" value="H0" style="ellipse;whiteSpace=wrap;html=1;aspect=fixed;" vertex="1" parent="DA8I_6xMAiAlv4DQ0YJ2-175">
          <mxGeometry x="23" width="20" height="20" as="geometry" />
        </mxCell>
        <mxCell id="DA8I_6xMAiAlv4DQ0YJ2-177" value="" style="group" vertex="1" connectable="0" parent="DA8I_6xMAiAlv4DQ0YJ2-175">
          <mxGeometry width="74" height="30" as="geometry" />
        </mxCell>
        <mxCell id="DA8I_6xMAiAlv4DQ0YJ2-178" value="30" style="text;html=1;align=center;verticalAlign=middle;resizable=0;points=[];autosize=1;" vertex="1" parent="DA8I_6xMAiAlv4DQ0YJ2-177">
          <mxGeometry width="30" height="20" as="geometry" />
        </mxCell>
        <mxCell id="DA8I_6xMAiAlv4DQ0YJ2-180" value="" style="group" vertex="1" connectable="0" parent="1">
          <mxGeometry x="90" y="270" width="74" height="30" as="geometry" />
        </mxCell>
        <mxCell id="DA8I_6xMAiAlv4DQ0YJ2-181" value="H1" style="ellipse;whiteSpace=wrap;html=1;aspect=fixed;" vertex="1" parent="DA8I_6xMAiAlv4DQ0YJ2-180">
          <mxGeometry x="23" width="20" height="20" as="geometry" />
        </mxCell>
        <mxCell id="DA8I_6xMAiAlv4DQ0YJ2-182" value="" style="group" vertex="1" connectable="0" parent="DA8I_6xMAiAlv4DQ0YJ2-180">
          <mxGeometry width="74" height="30" as="geometry" />
        </mxCell>
        <mxCell id="DA8I_6xMAiAlv4DQ0YJ2-183" value="36" style="text;html=1;align=center;verticalAlign=middle;resizable=0;points=[];autosize=1;" vertex="1" parent="DA8I_6xMAiAlv4DQ0YJ2-182">
          <mxGeometry width="30" height="20" as="geometry" />
        </mxCell>
        <mxCell id="DA8I_6xMAiAlv4DQ0YJ2-185" style="edgeStyle=none;rounded=0;orthogonalLoop=1;jettySize=auto;html=1;entryX=0.5;entryY=0;entryDx=0;entryDy=0;startArrow=none;startFill=0;endArrow=none;endFill=0;exitX=1.043;exitY=0.9;exitDx=0;exitDy=0;exitPerimeter=0;" edge="1" parent="1" source="DA8I_6xMAiAlv4DQ0YJ2-47" target="DA8I_6xMAiAlv4DQ0YJ2-176">
          <mxGeometry relative="1" as="geometry">
            <mxPoint x="82.00999999999999" y="212" as="sourcePoint" />
            <mxPoint x="33" y="281.46000000000004" as="targetPoint" />
          </mxGeometry>
        </mxCell>
        <mxCell id="DA8I_6xMAiAlv4DQ0YJ2-186" value="3" style="edgeLabel;html=1;align=center;verticalAlign=middle;resizable=0;points=[];" vertex="1" connectable="0" parent="DA8I_6xMAiAlv4DQ0YJ2-185">
          <mxGeometry x="0.0225" y="1" relative="1" as="geometry">
            <mxPoint as="offset" />
          </mxGeometry>
        </mxCell>
        <mxCell id="DA8I_6xMAiAlv4DQ0YJ2-187" style="edgeStyle=none;rounded=0;orthogonalLoop=1;jettySize=auto;html=1;entryX=1.09;entryY=0.029;entryDx=0;entryDy=0;startArrow=none;startFill=0;endArrow=none;endFill=0;entryPerimeter=0;exitX=-0.182;exitY=1.097;exitDx=0;exitDy=0;exitPerimeter=0;" edge="1" parent="1" target="DA8I_6xMAiAlv4DQ0YJ2-183">
          <mxGeometry relative="1" as="geometry">
            <mxPoint x="86.36000000000013" y="201.93999999999994" as="sourcePoint" />
            <mxPoint x="83" y="280" as="targetPoint" />
          </mxGeometry>
        </mxCell>
        <mxCell id="DA8I_6xMAiAlv4DQ0YJ2-188" value="5" style="edgeLabel;html=1;align=center;verticalAlign=middle;resizable=0;points=[];" vertex="1" connectable="0" parent="DA8I_6xMAiAlv4DQ0YJ2-187">
          <mxGeometry x="0.0225" y="1" relative="1" as="geometry">
            <mxPoint as="offset" />
          </mxGeometry>
        </mxCell>
        <mxCell id="DA8I_6xMAiAlv4DQ0YJ2-189" value="I0" style="ellipse;whiteSpace=wrap;html=1;aspect=fixed;" vertex="1" parent="1">
          <mxGeometry x="150" y="270" width="20" height="20" as="geometry" />
        </mxCell>
        <mxCell id="DA8I_6xMAiAlv4DQ0YJ2-191" value="" style="group" vertex="1" connectable="0" parent="1">
          <mxGeometry x="177" y="270" width="74" height="30" as="geometry" />
        </mxCell>
        <mxCell id="DA8I_6xMAiAlv4DQ0YJ2-192" value="I1" style="ellipse;whiteSpace=wrap;html=1;aspect=fixed;" vertex="1" parent="DA8I_6xMAiAlv4DQ0YJ2-191">
          <mxGeometry x="23" width="20" height="20" as="geometry" />
        </mxCell>
        <mxCell id="DA8I_6xMAiAlv4DQ0YJ2-193" value="" style="group" vertex="1" connectable="0" parent="DA8I_6xMAiAlv4DQ0YJ2-191">
          <mxGeometry width="74" height="30" as="geometry" />
        </mxCell>
        <mxCell id="DA8I_6xMAiAlv4DQ0YJ2-194" value="34" style="text;html=1;align=center;verticalAlign=middle;resizable=0;points=[];autosize=1;" vertex="1" parent="DA8I_6xMAiAlv4DQ0YJ2-193">
          <mxGeometry width="30" height="20" as="geometry" />
        </mxCell>
        <mxCell id="DA8I_6xMAiAlv4DQ0YJ2-196" style="edgeStyle=none;rounded=0;orthogonalLoop=1;jettySize=auto;html=1;entryX=0.5;entryY=0;entryDx=0;entryDy=0;startArrow=none;startFill=0;endArrow=none;endFill=0;exitX=0.967;exitY=1.014;exitDx=0;exitDy=0;exitPerimeter=0;" edge="1" parent="1" source="DA8I_6xMAiAlv4DQ0YJ2-52" target="DA8I_6xMAiAlv4DQ0YJ2-189">
          <mxGeometry relative="1" as="geometry">
            <mxPoint x="140" y="210" as="sourcePoint" />
            <mxPoint x="132.70000000000005" y="280.58000000000004" as="targetPoint" />
          </mxGeometry>
        </mxCell>
        <mxCell id="DA8I_6xMAiAlv4DQ0YJ2-197" value="3" style="edgeLabel;html=1;align=center;verticalAlign=middle;resizable=0;points=[];" vertex="1" connectable="0" parent="DA8I_6xMAiAlv4DQ0YJ2-196">
          <mxGeometry x="0.0225" y="1" relative="1" as="geometry">
            <mxPoint as="offset" />
          </mxGeometry>
        </mxCell>
        <mxCell id="DA8I_6xMAiAlv4DQ0YJ2-198" style="edgeStyle=none;rounded=0;orthogonalLoop=1;jettySize=auto;html=1;entryX=1.086;entryY=-0.057;entryDx=0;entryDy=0;startArrow=none;startFill=0;endArrow=none;endFill=0;exitX=0.986;exitY=1.043;exitDx=0;exitDy=0;exitPerimeter=0;entryPerimeter=0;" edge="1" parent="1" source="DA8I_6xMAiAlv4DQ0YJ2-52" target="DA8I_6xMAiAlv4DQ0YJ2-194">
          <mxGeometry relative="1" as="geometry">
            <mxPoint x="199.01" y="210.27999999999997" as="sourcePoint" />
            <mxPoint x="170" y="280" as="targetPoint" />
          </mxGeometry>
        </mxCell>
        <mxCell id="DA8I_6xMAiAlv4DQ0YJ2-199" value="4" style="edgeLabel;html=1;align=center;verticalAlign=middle;resizable=0;points=[];" vertex="1" connectable="0" parent="DA8I_6xMAiAlv4DQ0YJ2-198">
          <mxGeometry x="0.0225" y="1" relative="1" as="geometry">
            <mxPoint as="offset" />
          </mxGeometry>
        </mxCell>
        <mxCell id="DA8I_6xMAiAlv4DQ0YJ2-209" value="K0" style="ellipse;whiteSpace=wrap;html=1;aspect=fixed;" vertex="1" parent="1">
          <mxGeometry x="306" y="270" width="20" height="20" as="geometry" />
        </mxCell>
        <mxCell id="DA8I_6xMAiAlv4DQ0YJ2-211" value="K1" style="ellipse;whiteSpace=wrap;html=1;aspect=fixed;" vertex="1" parent="1">
          <mxGeometry x="356" y="270" width="20" height="20" as="geometry" />
        </mxCell>
        <mxCell id="DA8I_6xMAiAlv4DQ0YJ2-212" value="48" style="text;html=1;align=center;verticalAlign=middle;resizable=0;points=[];autosize=1;" vertex="1" parent="1">
          <mxGeometry x="333" y="270" width="30" height="20" as="geometry" />
        </mxCell>
        <mxCell id="DA8I_6xMAiAlv4DQ0YJ2-213" style="edgeStyle=none;rounded=0;orthogonalLoop=1;jettySize=auto;html=1;startArrow=none;startFill=0;endArrow=none;endFill=0;" edge="1" parent="1" source="DA8I_6xMAiAlv4DQ0YJ2-62" target="DA8I_6xMAiAlv4DQ0YJ2-209">
          <mxGeometry relative="1" as="geometry" />
        </mxCell>
        <mxCell id="DA8I_6xMAiAlv4DQ0YJ2-271" value="&lt;font color=&quot;#000000&quot;&gt;2&lt;/font&gt;" style="edgeLabel;html=1;align=center;verticalAlign=middle;resizable=0;points=[];fontColor=#FF1947;" vertex="1" connectable="0" parent="DA8I_6xMAiAlv4DQ0YJ2-213">
          <mxGeometry x="0.0242" y="-1" relative="1" as="geometry">
            <mxPoint as="offset" />
          </mxGeometry>
        </mxCell>
        <mxCell id="DA8I_6xMAiAlv4DQ0YJ2-214" style="edgeStyle=none;rounded=0;orthogonalLoop=1;jettySize=auto;html=1;entryX=0.336;entryY=0.086;entryDx=0;entryDy=0;entryPerimeter=0;startArrow=none;startFill=0;endArrow=none;endFill=0;" edge="1" parent="1" source="DA8I_6xMAiAlv4DQ0YJ2-62" target="DA8I_6xMAiAlv4DQ0YJ2-211">
          <mxGeometry relative="1" as="geometry" />
        </mxCell>
        <mxCell id="DA8I_6xMAiAlv4DQ0YJ2-272" value="&lt;font color=&quot;#000000&quot;&gt;5&lt;/font&gt;" style="edgeLabel;html=1;align=center;verticalAlign=middle;resizable=0;points=[];fontColor=#FF1947;" vertex="1" connectable="0" parent="DA8I_6xMAiAlv4DQ0YJ2-214">
          <mxGeometry x="-0.0862" relative="1" as="geometry">
            <mxPoint as="offset" />
          </mxGeometry>
        </mxCell>
        <mxCell id="DA8I_6xMAiAlv4DQ0YJ2-215" value="L0" style="ellipse;whiteSpace=wrap;html=1;aspect=fixed;" vertex="1" parent="1">
          <mxGeometry x="414" y="270" width="20" height="20" as="geometry" />
        </mxCell>
        <mxCell id="DA8I_6xMAiAlv4DQ0YJ2-217" value="L1" style="ellipse;whiteSpace=wrap;html=1;aspect=fixed;" vertex="1" parent="1">
          <mxGeometry x="464" y="270" width="20" height="20" as="geometry" />
        </mxCell>
        <mxCell id="DA8I_6xMAiAlv4DQ0YJ2-218" value="49" style="text;html=1;align=center;verticalAlign=middle;resizable=0;points=[];autosize=1;" vertex="1" parent="1">
          <mxGeometry x="441" y="270" width="30" height="20" as="geometry" />
        </mxCell>
        <mxCell id="DA8I_6xMAiAlv4DQ0YJ2-219" style="edgeStyle=none;rounded=0;orthogonalLoop=1;jettySize=auto;html=1;startArrow=none;startFill=0;endArrow=none;endFill=0;" edge="1" parent="1" source="DA8I_6xMAiAlv4DQ0YJ2-67" target="DA8I_6xMAiAlv4DQ0YJ2-215">
          <mxGeometry relative="1" as="geometry" />
        </mxCell>
        <mxCell id="DA8I_6xMAiAlv4DQ0YJ2-273" value="2" style="edgeLabel;html=1;align=center;verticalAlign=middle;resizable=0;points=[];" vertex="1" connectable="0" parent="DA8I_6xMAiAlv4DQ0YJ2-219">
          <mxGeometry x="-0.1179" y="-1" relative="1" as="geometry">
            <mxPoint as="offset" />
          </mxGeometry>
        </mxCell>
        <mxCell id="DA8I_6xMAiAlv4DQ0YJ2-220" style="edgeStyle=none;rounded=0;orthogonalLoop=1;jettySize=auto;html=1;entryX=1.01;entryY=0.029;entryDx=0;entryDy=0;entryPerimeter=0;startArrow=none;startFill=0;endArrow=none;endFill=0;" edge="1" parent="1" source="DA8I_6xMAiAlv4DQ0YJ2-67" target="DA8I_6xMAiAlv4DQ0YJ2-218">
          <mxGeometry relative="1" as="geometry" />
        </mxCell>
        <mxCell id="DA8I_6xMAiAlv4DQ0YJ2-274" value="4" style="edgeLabel;html=1;align=center;verticalAlign=middle;resizable=0;points=[];" vertex="1" connectable="0" parent="DA8I_6xMAiAlv4DQ0YJ2-220">
          <mxGeometry x="-0.0741" y="-1" relative="1" as="geometry">
            <mxPoint as="offset" />
          </mxGeometry>
        </mxCell>
        <mxCell id="DA8I_6xMAiAlv4DQ0YJ2-221" value="M0" style="ellipse;whiteSpace=wrap;html=1;aspect=fixed;" vertex="1" parent="1">
          <mxGeometry x="520" y="270" width="20" height="20" as="geometry" />
        </mxCell>
        <mxCell id="DA8I_6xMAiAlv4DQ0YJ2-223" value="" style="group" vertex="1" connectable="0" parent="1">
          <mxGeometry x="547" y="270" width="74" height="30" as="geometry" />
        </mxCell>
        <mxCell id="DA8I_6xMAiAlv4DQ0YJ2-224" value="M1" style="ellipse;whiteSpace=wrap;html=1;aspect=fixed;" vertex="1" parent="DA8I_6xMAiAlv4DQ0YJ2-223">
          <mxGeometry x="16" width="20" height="20" as="geometry" />
        </mxCell>
        <mxCell id="DA8I_6xMAiAlv4DQ0YJ2-225" value="" style="group" vertex="1" connectable="0" parent="DA8I_6xMAiAlv4DQ0YJ2-223">
          <mxGeometry width="74" height="30" as="geometry" />
        </mxCell>
        <mxCell id="DA8I_6xMAiAlv4DQ0YJ2-226" value="16" style="text;html=1;align=center;verticalAlign=middle;resizable=0;points=[];autosize=1;" vertex="1" parent="DA8I_6xMAiAlv4DQ0YJ2-225">
          <mxGeometry x="-7" width="30" height="20" as="geometry" />
        </mxCell>
        <mxCell id="DA8I_6xMAiAlv4DQ0YJ2-395" value="" style="edgeStyle=none;rounded=0;orthogonalLoop=1;jettySize=auto;html=1;startArrow=none;startFill=0;endArrow=none;endFill=0;fontColor=#000000;entryX=1.017;entryY=0.75;entryDx=0;entryDy=0;entryPerimeter=0;" edge="1" parent="1" source="DA8I_6xMAiAlv4DQ0YJ2-228" target="DA8I_6xMAiAlv4DQ0YJ2-394">
          <mxGeometry relative="1" as="geometry" />
        </mxCell>
        <mxCell id="DA8I_6xMAiAlv4DQ0YJ2-396" value="5" style="edgeLabel;html=1;align=center;verticalAlign=middle;resizable=0;points=[];fontColor=#000000;" vertex="1" connectable="0" parent="DA8I_6xMAiAlv4DQ0YJ2-395">
          <mxGeometry x="-0.0684" y="1" relative="1" as="geometry">
            <mxPoint as="offset" />
          </mxGeometry>
        </mxCell>
        <mxCell id="DA8I_6xMAiAlv4DQ0YJ2-228" value="N0" style="ellipse;whiteSpace=wrap;html=1;aspect=fixed;" vertex="1" parent="1">
          <mxGeometry x="610" y="270" width="20" height="20" as="geometry" />
        </mxCell>
        <mxCell id="DA8I_6xMAiAlv4DQ0YJ2-230" value="N1" style="ellipse;whiteSpace=wrap;html=1;aspect=fixed;" vertex="1" parent="1">
          <mxGeometry x="652" y="270" width="20" height="20" as="geometry" />
        </mxCell>
        <mxCell id="DA8I_6xMAiAlv4DQ0YJ2-231" value="23" style="text;html=1;align=center;verticalAlign=middle;resizable=0;points=[];autosize=1;" vertex="1" parent="1">
          <mxGeometry x="629" y="270" width="30" height="20" as="geometry" />
        </mxCell>
        <mxCell id="DA8I_6xMAiAlv4DQ0YJ2-232" value="O0" style="ellipse;whiteSpace=wrap;html=1;aspect=fixed;" vertex="1" parent="1">
          <mxGeometry x="712" y="270" width="20" height="20" as="geometry" />
        </mxCell>
        <mxCell id="DA8I_6xMAiAlv4DQ0YJ2-359" style="edgeStyle=none;rounded=0;orthogonalLoop=1;jettySize=auto;html=1;entryX=0.5;entryY=0;entryDx=0;entryDy=0;startArrow=none;startFill=0;endArrow=none;endFill=0;fontColor=#000000;" edge="1" parent="1" source="DA8I_6xMAiAlv4DQ0YJ2-234" target="DA8I_6xMAiAlv4DQ0YJ2-356">
          <mxGeometry relative="1" as="geometry" />
        </mxCell>
        <mxCell id="DA8I_6xMAiAlv4DQ0YJ2-360" value="2" style="edgeLabel;html=1;align=center;verticalAlign=middle;resizable=0;points=[];fontColor=#000000;" vertex="1" connectable="0" parent="DA8I_6xMAiAlv4DQ0YJ2-359">
          <mxGeometry x="0.154" y="-1" relative="1" as="geometry">
            <mxPoint y="-1" as="offset" />
          </mxGeometry>
        </mxCell>
        <mxCell id="DA8I_6xMAiAlv4DQ0YJ2-234" value="O1" style="ellipse;whiteSpace=wrap;html=1;aspect=fixed;" vertex="1" parent="1">
          <mxGeometry x="768" y="270" width="20" height="20" as="geometry" />
        </mxCell>
        <mxCell id="DA8I_6xMAiAlv4DQ0YJ2-235" value="29" style="text;html=1;align=center;verticalAlign=middle;resizable=0;points=[];autosize=1;" vertex="1" parent="1">
          <mxGeometry x="745" y="270" width="30" height="20" as="geometry" />
        </mxCell>
        <mxCell id="DA8I_6xMAiAlv4DQ0YJ2-236" style="edgeStyle=none;rounded=0;orthogonalLoop=1;jettySize=auto;html=1;entryX=0.5;entryY=0;entryDx=0;entryDy=0;startArrow=none;startFill=0;endArrow=none;endFill=0;exitX=1.016;exitY=1.038;exitDx=0;exitDy=0;exitPerimeter=0;" edge="1" parent="1" source="DA8I_6xMAiAlv4DQ0YJ2-78" target="DA8I_6xMAiAlv4DQ0YJ2-221">
          <mxGeometry relative="1" as="geometry" />
        </mxCell>
        <mxCell id="DA8I_6xMAiAlv4DQ0YJ2-279" value="3" style="edgeLabel;html=1;align=center;verticalAlign=middle;resizable=0;points=[];fontColor=#000000;" vertex="1" connectable="0" parent="DA8I_6xMAiAlv4DQ0YJ2-236">
          <mxGeometry x="0.1519" y="-1" relative="1" as="geometry">
            <mxPoint as="offset" />
          </mxGeometry>
        </mxCell>
        <mxCell id="DA8I_6xMAiAlv4DQ0YJ2-237" style="edgeStyle=none;rounded=0;orthogonalLoop=1;jettySize=auto;html=1;entryX=1.023;entryY=-0.05;entryDx=0;entryDy=0;startArrow=none;startFill=0;endArrow=none;endFill=0;exitX=-0.309;exitY=0.921;exitDx=0;exitDy=0;exitPerimeter=0;entryPerimeter=0;" edge="1" parent="1" source="DA8I_6xMAiAlv4DQ0YJ2-79" target="DA8I_6xMAiAlv4DQ0YJ2-226">
          <mxGeometry relative="1" as="geometry">
            <mxPoint x="602.98" y="210.76" as="sourcePoint" />
            <mxPoint x="540" y="280" as="targetPoint" />
          </mxGeometry>
        </mxCell>
        <mxCell id="DA8I_6xMAiAlv4DQ0YJ2-280" value="5" style="edgeLabel;html=1;align=center;verticalAlign=middle;resizable=0;points=[];fontColor=#000000;" vertex="1" connectable="0" parent="DA8I_6xMAiAlv4DQ0YJ2-237">
          <mxGeometry x="0.2256" y="-1" relative="1" as="geometry">
            <mxPoint as="offset" />
          </mxGeometry>
        </mxCell>
        <mxCell id="DA8I_6xMAiAlv4DQ0YJ2-238" style="edgeStyle=none;rounded=0;orthogonalLoop=1;jettySize=auto;html=1;entryX=-0.299;entryY=0.009;entryDx=0;entryDy=0;entryPerimeter=0;startArrow=none;startFill=0;endArrow=none;endFill=0;exitX=1.016;exitY=0.979;exitDx=0;exitDy=0;exitPerimeter=0;" edge="1" parent="1" source="DA8I_6xMAiAlv4DQ0YJ2-83">
          <mxGeometry relative="1" as="geometry">
            <mxPoint x="620.0199999999998" y="270.17999999999995" as="targetPoint" />
          </mxGeometry>
        </mxCell>
        <mxCell id="DA8I_6xMAiAlv4DQ0YJ2-283" value="2" style="edgeLabel;html=1;align=center;verticalAlign=middle;resizable=0;points=[];fontColor=#000000;" vertex="1" connectable="0" parent="DA8I_6xMAiAlv4DQ0YJ2-238">
          <mxGeometry x="0.0071" y="-1" relative="1" as="geometry">
            <mxPoint as="offset" />
          </mxGeometry>
        </mxCell>
        <mxCell id="DA8I_6xMAiAlv4DQ0YJ2-239" style="edgeStyle=none;rounded=0;orthogonalLoop=1;jettySize=auto;html=1;entryX=1.16;entryY=0.068;entryDx=0;entryDy=0;entryPerimeter=0;startArrow=none;startFill=0;endArrow=none;endFill=0;exitX=1.094;exitY=0.979;exitDx=0;exitDy=0;exitPerimeter=0;" edge="1" parent="1" source="DA8I_6xMAiAlv4DQ0YJ2-83" target="DA8I_6xMAiAlv4DQ0YJ2-231">
          <mxGeometry relative="1" as="geometry" />
        </mxCell>
        <mxCell id="DA8I_6xMAiAlv4DQ0YJ2-284" value="5" style="edgeLabel;html=1;align=center;verticalAlign=middle;resizable=0;points=[];fontColor=#000000;" vertex="1" connectable="0" parent="DA8I_6xMAiAlv4DQ0YJ2-239">
          <mxGeometry x="-0.0067" y="-1" relative="1" as="geometry">
            <mxPoint as="offset" />
          </mxGeometry>
        </mxCell>
        <mxCell id="DA8I_6xMAiAlv4DQ0YJ2-240" style="edgeStyle=none;rounded=0;orthogonalLoop=1;jettySize=auto;html=1;entryX=0.5;entryY=0;entryDx=0;entryDy=0;startArrow=none;startFill=0;endArrow=none;endFill=0;exitX=1.094;exitY=0.979;exitDx=0;exitDy=0;exitPerimeter=0;" edge="1" parent="1" source="DA8I_6xMAiAlv4DQ0YJ2-88" target="DA8I_6xMAiAlv4DQ0YJ2-232">
          <mxGeometry relative="1" as="geometry" />
        </mxCell>
        <mxCell id="DA8I_6xMAiAlv4DQ0YJ2-286" value="2" style="edgeLabel;html=1;align=center;verticalAlign=middle;resizable=0;points=[];fontColor=#000000;" vertex="1" connectable="0" parent="DA8I_6xMAiAlv4DQ0YJ2-240">
          <mxGeometry x="-0.0067" y="1" relative="1" as="geometry">
            <mxPoint as="offset" />
          </mxGeometry>
        </mxCell>
        <mxCell id="DA8I_6xMAiAlv4DQ0YJ2-241" style="edgeStyle=none;rounded=0;orthogonalLoop=1;jettySize=auto;html=1;entryX=1.066;entryY=0.185;entryDx=0;entryDy=0;startArrow=none;startFill=0;endArrow=none;endFill=0;exitX=-0.074;exitY=1.097;exitDx=0;exitDy=0;exitPerimeter=0;entryPerimeter=0;" edge="1" parent="1" target="DA8I_6xMAiAlv4DQ0YJ2-235">
          <mxGeometry relative="1" as="geometry">
            <mxPoint x="738.02" y="201.93999999999994" as="sourcePoint" />
            <mxPoint x="732" y="280" as="targetPoint" />
          </mxGeometry>
        </mxCell>
        <mxCell id="DA8I_6xMAiAlv4DQ0YJ2-287" value="3" style="edgeLabel;html=1;align=center;verticalAlign=middle;resizable=0;points=[];fontColor=#000000;" vertex="1" connectable="0" parent="DA8I_6xMAiAlv4DQ0YJ2-241">
          <mxGeometry x="-0.1182" y="-1" relative="1" as="geometry">
            <mxPoint as="offset" />
          </mxGeometry>
        </mxCell>
        <mxCell id="DA8I_6xMAiAlv4DQ0YJ2-242" value="P0" style="ellipse;whiteSpace=wrap;html=1;aspect=fixed;" vertex="1" parent="1">
          <mxGeometry x="835" y="270" width="20" height="20" as="geometry" />
        </mxCell>
        <mxCell id="DA8I_6xMAiAlv4DQ0YJ2-244" value="" style="group" vertex="1" connectable="0" parent="1">
          <mxGeometry x="862" y="270" width="74" height="30" as="geometry" />
        </mxCell>
        <mxCell id="DA8I_6xMAiAlv4DQ0YJ2-245" value="P1" style="ellipse;whiteSpace=wrap;html=1;aspect=fixed;" vertex="1" parent="DA8I_6xMAiAlv4DQ0YJ2-244">
          <mxGeometry x="23" width="20" height="20" as="geometry" />
        </mxCell>
        <mxCell id="DA8I_6xMAiAlv4DQ0YJ2-246" value="" style="group" vertex="1" connectable="0" parent="DA8I_6xMAiAlv4DQ0YJ2-244">
          <mxGeometry width="74" height="30" as="geometry" />
        </mxCell>
        <mxCell id="DA8I_6xMAiAlv4DQ0YJ2-247" value="17" style="text;html=1;align=center;verticalAlign=middle;resizable=0;points=[];autosize=1;" vertex="1" parent="DA8I_6xMAiAlv4DQ0YJ2-246">
          <mxGeometry width="30" height="20" as="geometry" />
        </mxCell>
        <mxCell id="DA8I_6xMAiAlv4DQ0YJ2-249" value="Q0" style="ellipse;whiteSpace=wrap;html=1;aspect=fixed;" vertex="1" parent="1">
          <mxGeometry x="944" y="270" width="20" height="20" as="geometry" />
        </mxCell>
        <mxCell id="DA8I_6xMAiAlv4DQ0YJ2-251" value="Q1" style="ellipse;whiteSpace=wrap;html=1;aspect=fixed;" vertex="1" parent="1">
          <mxGeometry x="994" y="270" width="20" height="20" as="geometry" />
        </mxCell>
        <mxCell id="DA8I_6xMAiAlv4DQ0YJ2-252" value="24" style="text;html=1;align=center;verticalAlign=middle;resizable=0;points=[];autosize=1;" vertex="1" parent="1">
          <mxGeometry x="971" y="270" width="30" height="20" as="geometry" />
        </mxCell>
        <mxCell id="DA8I_6xMAiAlv4DQ0YJ2-253" value="R0" style="ellipse;whiteSpace=wrap;html=1;aspect=fixed;" vertex="1" parent="1">
          <mxGeometry x="1064" y="270" width="20" height="20" as="geometry" />
        </mxCell>
        <mxCell id="DA8I_6xMAiAlv4DQ0YJ2-255" value="R1" style="ellipse;whiteSpace=wrap;html=1;aspect=fixed;" vertex="1" parent="1">
          <mxGeometry x="1114" y="270" width="20" height="20" as="geometry" />
        </mxCell>
        <mxCell id="DA8I_6xMAiAlv4DQ0YJ2-256" value="29" style="text;html=1;align=center;verticalAlign=middle;resizable=0;points=[];autosize=1;" vertex="1" parent="1">
          <mxGeometry x="1091" y="270" width="30" height="20" as="geometry" />
        </mxCell>
        <mxCell id="DA8I_6xMAiAlv4DQ0YJ2-257" style="edgeStyle=none;rounded=0;orthogonalLoop=1;jettySize=auto;html=1;entryX=0.5;entryY=0;entryDx=0;entryDy=0;startArrow=none;startFill=0;endArrow=none;endFill=0;exitX=1.145;exitY=0.862;exitDx=0;exitDy=0;exitPerimeter=0;" edge="1" parent="1" source="DA8I_6xMAiAlv4DQ0YJ2-97" target="DA8I_6xMAiAlv4DQ0YJ2-242">
          <mxGeometry relative="1" as="geometry" />
        </mxCell>
        <mxCell id="DA8I_6xMAiAlv4DQ0YJ2-289" value="3" style="edgeLabel;html=1;align=center;verticalAlign=middle;resizable=0;points=[];fontColor=#000000;" vertex="1" connectable="0" parent="DA8I_6xMAiAlv4DQ0YJ2-257">
          <mxGeometry x="0.0235" y="-1" relative="1" as="geometry">
            <mxPoint as="offset" />
          </mxGeometry>
        </mxCell>
        <mxCell id="DA8I_6xMAiAlv4DQ0YJ2-258" style="edgeStyle=none;rounded=0;orthogonalLoop=1;jettySize=auto;html=1;entryX=1.096;entryY=0.126;entryDx=0;entryDy=0;entryPerimeter=0;startArrow=none;startFill=0;endArrow=none;endFill=0;" edge="1" parent="1" target="DA8I_6xMAiAlv4DQ0YJ2-247">
          <mxGeometry relative="1" as="geometry">
            <mxPoint x="895" y="200" as="sourcePoint" />
          </mxGeometry>
        </mxCell>
        <mxCell id="DA8I_6xMAiAlv4DQ0YJ2-290" value="4" style="edgeLabel;html=1;align=center;verticalAlign=middle;resizable=0;points=[];fontColor=#000000;" vertex="1" connectable="0" parent="DA8I_6xMAiAlv4DQ0YJ2-258">
          <mxGeometry x="-0.0133" y="-1" relative="1" as="geometry">
            <mxPoint as="offset" />
          </mxGeometry>
        </mxCell>
        <mxCell id="DA8I_6xMAiAlv4DQ0YJ2-259" style="edgeStyle=none;rounded=0;orthogonalLoop=1;jettySize=auto;html=1;entryX=0.5;entryY=0;entryDx=0;entryDy=0;startArrow=none;startFill=0;endArrow=none;endFill=0;exitX=1.027;exitY=1.038;exitDx=0;exitDy=0;exitPerimeter=0;" edge="1" parent="1" source="DA8I_6xMAiAlv4DQ0YJ2-102" target="DA8I_6xMAiAlv4DQ0YJ2-249">
          <mxGeometry relative="1" as="geometry" />
        </mxCell>
        <mxCell id="DA8I_6xMAiAlv4DQ0YJ2-292" value="2" style="edgeLabel;html=1;align=center;verticalAlign=middle;resizable=0;points=[];fontColor=#000000;" vertex="1" connectable="0" parent="DA8I_6xMAiAlv4DQ0YJ2-259">
          <mxGeometry x="-0.05" y="-1" relative="1" as="geometry">
            <mxPoint as="offset" />
          </mxGeometry>
        </mxCell>
        <mxCell id="DA8I_6xMAiAlv4DQ0YJ2-260" style="edgeStyle=none;rounded=0;orthogonalLoop=1;jettySize=auto;html=1;entryX=1.037;entryY=0.244;entryDx=0;entryDy=0;startArrow=none;startFill=0;endArrow=none;endFill=0;entryPerimeter=0;" edge="1" parent="1" target="DA8I_6xMAiAlv4DQ0YJ2-252">
          <mxGeometry relative="1" as="geometry">
            <mxPoint x="955" y="200" as="sourcePoint" />
            <mxPoint x="945" y="280" as="targetPoint" />
          </mxGeometry>
        </mxCell>
        <mxCell id="DA8I_6xMAiAlv4DQ0YJ2-293" value="4" style="edgeLabel;html=1;align=center;verticalAlign=middle;resizable=0;points=[];fontColor=#000000;" vertex="1" connectable="0" parent="DA8I_6xMAiAlv4DQ0YJ2-260">
          <mxGeometry x="-0.1898" relative="1" as="geometry">
            <mxPoint as="offset" />
          </mxGeometry>
        </mxCell>
        <mxCell id="DA8I_6xMAiAlv4DQ0YJ2-261" style="edgeStyle=none;rounded=0;orthogonalLoop=1;jettySize=auto;html=1;entryX=0.5;entryY=0;entryDx=0;entryDy=0;startArrow=none;startFill=0;endArrow=none;endFill=0;exitX=-0.174;exitY=1.038;exitDx=0;exitDy=0;exitPerimeter=0;" edge="1" parent="1" target="DA8I_6xMAiAlv4DQ0YJ2-253">
          <mxGeometry relative="1" as="geometry">
            <mxPoint x="1012.52" y="200.76000000000005" as="sourcePoint" />
          </mxGeometry>
        </mxCell>
        <mxCell id="DA8I_6xMAiAlv4DQ0YJ2-296" value="2" style="edgeLabel;html=1;align=center;verticalAlign=middle;resizable=0;points=[];fontColor=#000000;" vertex="1" connectable="0" parent="DA8I_6xMAiAlv4DQ0YJ2-261">
          <mxGeometry x="-0.1748" y="-1" relative="1" as="geometry">
            <mxPoint as="offset" />
          </mxGeometry>
        </mxCell>
        <mxCell id="DA8I_6xMAiAlv4DQ0YJ2-262" style="edgeStyle=none;rounded=0;orthogonalLoop=1;jettySize=auto;html=1;entryX=1.1;entryY=0.068;entryDx=0;entryDy=0;entryPerimeter=0;startArrow=none;startFill=0;endArrow=none;endFill=0;exitX=-0.115;exitY=0.862;exitDx=0;exitDy=0;exitPerimeter=0;" edge="1" parent="1" target="DA8I_6xMAiAlv4DQ0YJ2-256">
          <mxGeometry relative="1" as="geometry">
            <mxPoint x="1013.6999999999998" y="197.23999999999995" as="sourcePoint" />
          </mxGeometry>
        </mxCell>
        <mxCell id="DA8I_6xMAiAlv4DQ0YJ2-297" value="3" style="edgeLabel;html=1;align=center;verticalAlign=middle;resizable=0;points=[];fontColor=#000000;" vertex="1" connectable="0" parent="DA8I_6xMAiAlv4DQ0YJ2-262">
          <mxGeometry x="0.0023" relative="1" as="geometry">
            <mxPoint as="offset" />
          </mxGeometry>
        </mxCell>
        <mxCell id="DA8I_6xMAiAlv4DQ0YJ2-270" value="&lt;font color=&quot;#000000&quot;&gt;29&lt;/font&gt;" style="text;html=1;align=center;verticalAlign=middle;resizable=0;points=[];autosize=1;fontColor=#FF1947;" vertex="1" parent="1">
          <mxGeometry x="129" y="270" width="30" height="20" as="geometry" />
        </mxCell>
        <mxCell id="DA8I_6xMAiAlv4DQ0YJ2-275" value="40" style="text;html=1;align=center;verticalAlign=middle;resizable=0;points=[];autosize=1;fontColor=#000000;" vertex="1" parent="1">
          <mxGeometry x="284" y="270" width="30" height="20" as="geometry" />
        </mxCell>
        <mxCell id="DA8I_6xMAiAlv4DQ0YJ2-277" value="39" style="text;html=1;align=center;verticalAlign=middle;resizable=0;points=[];autosize=1;fontColor=#000000;" vertex="1" parent="1">
          <mxGeometry x="390" y="270" width="30" height="20" as="geometry" />
        </mxCell>
        <mxCell id="DA8I_6xMAiAlv4DQ0YJ2-281" value="30" style="text;html=1;align=center;verticalAlign=middle;resizable=0;points=[];autosize=1;fontColor=#000000;" vertex="1" parent="1">
          <mxGeometry x="497" y="270" width="30" height="20" as="geometry" />
        </mxCell>
        <mxCell id="DA8I_6xMAiAlv4DQ0YJ2-285" value="32" style="text;html=1;align=center;verticalAlign=middle;resizable=0;points=[];autosize=1;fontColor=#000000;" vertex="1" parent="1">
          <mxGeometry x="587" y="270" width="30" height="20" as="geometry" />
        </mxCell>
        <mxCell id="DA8I_6xMAiAlv4DQ0YJ2-288" value="24" style="text;html=1;align=center;verticalAlign=middle;resizable=0;points=[];autosize=1;fontColor=#000000;" vertex="1" parent="1">
          <mxGeometry x="687" y="270" width="30" height="20" as="geometry" />
        </mxCell>
        <mxCell id="DA8I_6xMAiAlv4DQ0YJ2-291" value="29" style="text;html=1;align=center;verticalAlign=middle;resizable=0;points=[];autosize=1;fontColor=#000000;" vertex="1" parent="1">
          <mxGeometry x="812" y="270" width="30" height="20" as="geometry" />
        </mxCell>
        <mxCell id="DA8I_6xMAiAlv4DQ0YJ2-294" value="34" style="text;html=1;align=center;verticalAlign=middle;resizable=0;points=[];autosize=1;fontColor=#000000;" vertex="1" parent="1">
          <mxGeometry x="921" y="270" width="30" height="20" as="geometry" />
        </mxCell>
        <mxCell id="DA8I_6xMAiAlv4DQ0YJ2-295" value="27" style="text;html=1;align=center;verticalAlign=middle;resizable=0;points=[];autosize=1;fontColor=#000000;" vertex="1" parent="1">
          <mxGeometry x="1041" y="270" width="30" height="20" as="geometry" />
        </mxCell>
        <mxCell id="DA8I_6xMAiAlv4DQ0YJ2-298" value="6" style="text;html=1;align=center;verticalAlign=middle;resizable=0;points=[];autosize=1;fontColor=#000000;" vertex="1" parent="1">
          <mxGeometry x="660" y="180" width="20" height="20" as="geometry" />
        </mxCell>
        <mxCell id="DA8I_6xMAiAlv4DQ0YJ2-303" style="edgeStyle=none;rounded=0;orthogonalLoop=1;jettySize=auto;html=1;entryX=1.1;entryY=-0.05;entryDx=0;entryDy=0;entryPerimeter=0;startArrow=none;startFill=0;endArrow=none;endFill=0;fontColor=#000000;exitX=0.35;exitY=0.95;exitDx=0;exitDy=0;exitPerimeter=0;" edge="1" parent="1" source="DA8I_6xMAiAlv4DQ0YJ2-299" target="DA8I_6xMAiAlv4DQ0YJ2-302">
          <mxGeometry relative="1" as="geometry">
            <mxPoint x="577" y="290" as="sourcePoint" />
          </mxGeometry>
        </mxCell>
        <mxCell id="DA8I_6xMAiAlv4DQ0YJ2-304" value="3" style="edgeLabel;html=1;align=center;verticalAlign=middle;resizable=0;points=[];fontColor=#000000;" vertex="1" connectable="0" parent="DA8I_6xMAiAlv4DQ0YJ2-303">
          <mxGeometry x="-0.0319" y="-3" relative="1" as="geometry">
            <mxPoint as="offset" />
          </mxGeometry>
        </mxCell>
        <mxCell id="DA8I_6xMAiAlv4DQ0YJ2-299" value="&amp;nbsp; &amp;nbsp; 7" style="text;html=1;align=center;verticalAlign=middle;resizable=0;points=[];autosize=1;fontColor=#000000;" vertex="1" parent="1">
          <mxGeometry x="560" y="270" width="40" height="20" as="geometry" />
        </mxCell>
        <mxCell id="DA8I_6xMAiAlv4DQ0YJ2-301" value="&lt;font style=&quot;font-size: 10px&quot;&gt;M10&lt;/font&gt;" style="ellipse;whiteSpace=wrap;html=1;aspect=fixed;" vertex="1" parent="1">
          <mxGeometry x="567" y="350" width="20" height="20" as="geometry" />
        </mxCell>
        <mxCell id="DA8I_6xMAiAlv4DQ0YJ2-302" value="23" style="text;html=1;align=center;verticalAlign=middle;resizable=0;points=[];autosize=1;fontColor=#000000;" vertex="1" parent="1">
          <mxGeometry x="540" y="350" width="30" height="20" as="geometry" />
        </mxCell>
        <mxCell id="DA8I_6xMAiAlv4DQ0YJ2-305" value="53" style="text;html=1;align=center;verticalAlign=middle;resizable=0;points=[];autosize=1;fontColor=#000000;" vertex="1" parent="1">
          <mxGeometry x="559" y="370" width="30" height="20" as="geometry" />
        </mxCell>
        <mxCell id="DA8I_6xMAiAlv4DQ0YJ2-306" value="8" style="text;html=1;align=center;verticalAlign=middle;resizable=0;points=[];autosize=1;fontColor=#000000;" vertex="1" parent="1">
          <mxGeometry x="900" y="270" width="20" height="20" as="geometry" />
        </mxCell>
        <mxCell id="DA8I_6xMAiAlv4DQ0YJ2-308" value="&lt;font style=&quot;font-size: 10px&quot;&gt;P10&lt;/font&gt;" style="ellipse;whiteSpace=wrap;html=1;aspect=fixed;" vertex="1" parent="1">
          <mxGeometry x="884" y="350" width="20" height="20" as="geometry" />
        </mxCell>
        <mxCell id="DA8I_6xMAiAlv4DQ0YJ2-309" value="23" style="text;html=1;align=center;verticalAlign=middle;resizable=0;points=[];autosize=1;fontColor=#000000;" vertex="1" parent="1">
          <mxGeometry x="857" y="350" width="30" height="20" as="geometry" />
        </mxCell>
        <mxCell id="DA8I_6xMAiAlv4DQ0YJ2-310" value="53" style="text;html=1;align=center;verticalAlign=middle;resizable=0;points=[];autosize=1;fontColor=#000000;" vertex="1" parent="1">
          <mxGeometry x="876" y="370" width="30" height="20" as="geometry" />
        </mxCell>
        <mxCell id="DA8I_6xMAiAlv4DQ0YJ2-311" style="edgeStyle=none;rounded=0;orthogonalLoop=1;jettySize=auto;html=1;entryX=0.5;entryY=0;entryDx=0;entryDy=0;startArrow=none;startFill=0;endArrow=none;endFill=0;fontColor=#000000;exitX=1.133;exitY=0.95;exitDx=0;exitDy=0;exitPerimeter=0;" edge="1" parent="1" source="DA8I_6xMAiAlv4DQ0YJ2-247" target="DA8I_6xMAiAlv4DQ0YJ2-308">
          <mxGeometry relative="1" as="geometry" />
        </mxCell>
        <mxCell id="DA8I_6xMAiAlv4DQ0YJ2-313" value="3" style="edgeLabel;html=1;align=center;verticalAlign=middle;resizable=0;points=[];fontColor=#000000;" vertex="1" connectable="0" parent="DA8I_6xMAiAlv4DQ0YJ2-311">
          <mxGeometry x="0.0829" y="-1" relative="1" as="geometry">
            <mxPoint as="offset" />
          </mxGeometry>
        </mxCell>
        <mxCell id="DA8I_6xMAiAlv4DQ0YJ2-314" value="9" style="text;html=1;align=center;verticalAlign=middle;resizable=0;points=[];autosize=1;fontColor=#000000;" vertex="1" parent="1">
          <mxGeometry x="955" y="180" width="20" height="20" as="geometry" />
        </mxCell>
        <mxCell id="DA8I_6xMAiAlv4DQ0YJ2-315" value="&amp;nbsp; &amp;nbsp; 10" style="text;html=1;align=center;verticalAlign=middle;resizable=0;points=[];autosize=1;fontColor=#000000;" vertex="1" parent="1">
          <mxGeometry x="80" y="130" width="40" height="20" as="geometry" />
        </mxCell>
        <mxCell id="DA8I_6xMAiAlv4DQ0YJ2-316" value="&amp;nbsp;11" style="text;html=1;align=center;verticalAlign=middle;resizable=0;points=[];autosize=1;fontColor=#000000;" vertex="1" parent="1">
          <mxGeometry x="733" y="180" width="30" height="20" as="geometry" />
        </mxCell>
        <mxCell id="DA8I_6xMAiAlv4DQ0YJ2-317" value="&amp;nbsp;12" style="text;html=1;align=center;verticalAlign=middle;resizable=0;points=[];autosize=1;fontColor=#000000;" vertex="1" parent="1">
          <mxGeometry x="145" y="180" width="30" height="20" as="geometry" />
        </mxCell>
        <mxCell id="DA8I_6xMAiAlv4DQ0YJ2-318" value="13" style="text;html=1;align=center;verticalAlign=middle;resizable=0;points=[];autosize=1;fontColor=#000000;" vertex="1" parent="1">
          <mxGeometry x="665" y="270" width="30" height="20" as="geometry" />
        </mxCell>
        <mxCell id="DA8I_6xMAiAlv4DQ0YJ2-320" value="&lt;font style=&quot;font-size: 10px&quot;&gt;N10&lt;/font&gt;" style="ellipse;whiteSpace=wrap;html=1;aspect=fixed;" vertex="1" parent="1">
          <mxGeometry x="650" y="350" width="20" height="20" as="geometry" />
        </mxCell>
        <mxCell id="DA8I_6xMAiAlv4DQ0YJ2-323" style="edgeStyle=none;rounded=0;orthogonalLoop=1;jettySize=auto;html=1;startArrow=none;startFill=0;endArrow=none;endFill=0;fontColor=#000000;entryX=1.09;entryY=1.018;entryDx=0;entryDy=0;entryPerimeter=0;exitX=0.5;exitY=0;exitDx=0;exitDy=0;" edge="1" parent="1" source="DA8I_6xMAiAlv4DQ0YJ2-320" target="DA8I_6xMAiAlv4DQ0YJ2-231">
          <mxGeometry relative="1" as="geometry">
            <mxPoint x="659.9999999999995" y="310" as="targetPoint" />
          </mxGeometry>
        </mxCell>
        <mxCell id="DA8I_6xMAiAlv4DQ0YJ2-324" value="2" style="edgeLabel;html=1;align=center;verticalAlign=middle;resizable=0;points=[];fontColor=#000000;" vertex="1" connectable="0" parent="DA8I_6xMAiAlv4DQ0YJ2-323">
          <mxGeometry x="0.017" y="-3" relative="1" as="geometry">
            <mxPoint as="offset" />
          </mxGeometry>
        </mxCell>
        <mxCell id="DA8I_6xMAiAlv4DQ0YJ2-321" value="25" style="text;html=1;align=center;verticalAlign=middle;resizable=0;points=[];autosize=1;fontColor=#000000;" vertex="1" parent="1">
          <mxGeometry x="623" y="350" width="30" height="20" as="geometry" />
        </mxCell>
        <mxCell id="DA8I_6xMAiAlv4DQ0YJ2-322" value="45" style="text;html=1;align=center;verticalAlign=middle;resizable=0;points=[];autosize=1;fontColor=#000000;" vertex="1" parent="1">
          <mxGeometry x="642" y="370" width="30" height="20" as="geometry" />
        </mxCell>
        <mxCell id="DA8I_6xMAiAlv4DQ0YJ2-325" value="14" style="text;html=1;align=center;verticalAlign=middle;resizable=0;points=[];autosize=1;fontColor=#000000;" vertex="1" parent="1">
          <mxGeometry x="1013" y="180" width="30" height="20" as="geometry" />
        </mxCell>
        <mxCell id="DA8I_6xMAiAlv4DQ0YJ2-326" value="&amp;nbsp; &amp;nbsp; &amp;nbsp; 15" style="text;html=1;align=center;verticalAlign=middle;resizable=0;points=[];autosize=1;fontColor=#000000;" vertex="1" parent="1">
          <mxGeometry x="705" y="270" width="50" height="20" as="geometry" />
        </mxCell>
        <mxCell id="DA8I_6xMAiAlv4DQ0YJ2-331" style="edgeStyle=none;rounded=0;orthogonalLoop=1;jettySize=auto;html=1;entryX=0.334;entryY=1.076;entryDx=0;entryDy=0;entryPerimeter=0;startArrow=none;startFill=0;endArrow=none;endFill=0;fontColor=#000000;" edge="1" parent="1" source="DA8I_6xMAiAlv4DQ0YJ2-327" target="DA8I_6xMAiAlv4DQ0YJ2-326">
          <mxGeometry relative="1" as="geometry" />
        </mxCell>
        <mxCell id="DA8I_6xMAiAlv4DQ0YJ2-332" value="3" style="edgeLabel;html=1;align=center;verticalAlign=middle;resizable=0;points=[];fontColor=#000000;" vertex="1" connectable="0" parent="DA8I_6xMAiAlv4DQ0YJ2-331">
          <mxGeometry x="0.1142" relative="1" as="geometry">
            <mxPoint as="offset" />
          </mxGeometry>
        </mxCell>
        <mxCell id="DA8I_6xMAiAlv4DQ0YJ2-327" value="&lt;span style=&quot;font-size: 10px&quot;&gt;O00&lt;/span&gt;" style="ellipse;whiteSpace=wrap;html=1;aspect=fixed;" vertex="1" parent="1">
          <mxGeometry x="714" y="350" width="20" height="20" as="geometry" />
        </mxCell>
        <mxCell id="DA8I_6xMAiAlv4DQ0YJ2-329" value="40" style="text;html=1;align=center;verticalAlign=middle;resizable=0;points=[];autosize=1;fontColor=#000000;" vertex="1" parent="1">
          <mxGeometry x="687" y="350" width="30" height="20" as="geometry" />
        </mxCell>
        <mxCell id="DA8I_6xMAiAlv4DQ0YJ2-330" value="70&lt;br&gt;&amp;gt;45)" style="text;html=1;align=center;verticalAlign=middle;resizable=0;points=[];autosize=1;fontColor=#000000;" vertex="1" parent="1">
          <mxGeometry x="704" y="368" width="40" height="30" as="geometry" />
        </mxCell>
        <mxCell id="DA8I_6xMAiAlv4DQ0YJ2-334" value="16" style="text;html=1;align=center;verticalAlign=middle;resizable=0;points=[];autosize=1;fontColor=#000000;" vertex="1" parent="1">
          <mxGeometry x="1005" y="270" width="30" height="20" as="geometry" />
        </mxCell>
        <mxCell id="DA8I_6xMAiAlv4DQ0YJ2-335" value="&lt;font style=&quot;font-size: 10px&quot;&gt;Q10&lt;/font&gt;" style="ellipse;whiteSpace=wrap;html=1;aspect=fixed;" vertex="1" parent="1">
          <mxGeometry x="1002" y="350" width="20" height="20" as="geometry" />
        </mxCell>
        <mxCell id="DA8I_6xMAiAlv4DQ0YJ2-336" value="28" style="text;html=1;align=center;verticalAlign=middle;resizable=0;points=[];autosize=1;fontColor=#000000;" vertex="1" parent="1">
          <mxGeometry x="975" y="350" width="30" height="20" as="geometry" />
        </mxCell>
        <mxCell id="DA8I_6xMAiAlv4DQ0YJ2-339" value="" style="edgeStyle=none;rounded=0;orthogonalLoop=1;jettySize=auto;html=1;startArrow=none;startFill=0;endArrow=none;endFill=0;fontColor=#000000;" edge="1" parent="1">
          <mxGeometry relative="1" as="geometry">
            <mxPoint x="1010" y="350" as="sourcePoint" />
            <mxPoint x="1010" y="290" as="targetPoint" />
          </mxGeometry>
        </mxCell>
        <mxCell id="DA8I_6xMAiAlv4DQ0YJ2-341" value="2" style="edgeLabel;html=1;align=center;verticalAlign=middle;resizable=0;points=[];fontColor=#000000;" vertex="1" connectable="0" parent="DA8I_6xMAiAlv4DQ0YJ2-339">
          <mxGeometry x="-0.0314" y="-2" relative="1" as="geometry">
            <mxPoint as="offset" />
          </mxGeometry>
        </mxCell>
        <mxCell id="DA8I_6xMAiAlv4DQ0YJ2-337" value="48&lt;br&gt;&amp;gt;45" style="text;html=1;align=center;verticalAlign=middle;resizable=0;points=[];autosize=1;fontColor=#000000;" vertex="1" parent="1">
          <mxGeometry x="989" y="365" width="40" height="30" as="geometry" />
        </mxCell>
        <mxCell id="DA8I_6xMAiAlv4DQ0YJ2-342" value="&amp;nbsp;17" style="text;html=1;align=center;verticalAlign=middle;resizable=0;points=[];autosize=1;fontColor=#000000;" vertex="1" parent="1">
          <mxGeometry x="85" y="180" width="30" height="20" as="geometry" />
        </mxCell>
        <mxCell id="DA8I_6xMAiAlv4DQ0YJ2-343" value="18" style="text;html=1;align=center;verticalAlign=middle;resizable=0;points=[];autosize=1;fontColor=#000000;" vertex="1" parent="1">
          <mxGeometry x="1075" y="275" width="30" height="20" as="geometry" />
        </mxCell>
        <mxCell id="DA8I_6xMAiAlv4DQ0YJ2-344" value="&lt;font style=&quot;font-size: 10px&quot;&gt;R00&lt;/font&gt;" style="ellipse;whiteSpace=wrap;html=1;aspect=fixed;" vertex="1" parent="1">
          <mxGeometry x="1074" y="350" width="20" height="20" as="geometry" />
        </mxCell>
        <mxCell id="DA8I_6xMAiAlv4DQ0YJ2-348" style="edgeStyle=none;rounded=0;orthogonalLoop=1;jettySize=auto;html=1;entryX=-0.051;entryY=0.768;entryDx=0;entryDy=0;entryPerimeter=0;startArrow=none;startFill=0;endArrow=none;endFill=0;fontColor=#000000;exitX=0.5;exitY=0;exitDx=0;exitDy=0;" edge="1" parent="1" source="DA8I_6xMAiAlv4DQ0YJ2-344" target="DA8I_6xMAiAlv4DQ0YJ2-343">
          <mxGeometry relative="1" as="geometry" />
        </mxCell>
        <mxCell id="DA8I_6xMAiAlv4DQ0YJ2-349" value="3" style="edgeLabel;html=1;align=center;verticalAlign=middle;resizable=0;points=[];fontColor=#000000;" vertex="1" connectable="0" parent="DA8I_6xMAiAlv4DQ0YJ2-348">
          <mxGeometry x="0.2463" y="-1" relative="1" as="geometry">
            <mxPoint as="offset" />
          </mxGeometry>
        </mxCell>
        <mxCell id="DA8I_6xMAiAlv4DQ0YJ2-345" value="43" style="text;html=1;align=center;verticalAlign=middle;resizable=0;points=[];autosize=1;fontColor=#000000;" vertex="1" parent="1">
          <mxGeometry x="1047" y="350" width="30" height="20" as="geometry" />
        </mxCell>
        <mxCell id="DA8I_6xMAiAlv4DQ0YJ2-347" value="73&lt;br&gt;&amp;gt;45" style="text;html=1;align=center;verticalAlign=middle;resizable=0;points=[];autosize=1;fontColor=#000000;" vertex="1" parent="1">
          <mxGeometry x="1061" y="365" width="40" height="30" as="geometry" />
        </mxCell>
        <mxCell id="DA8I_6xMAiAlv4DQ0YJ2-350" value="&lt;font style=&quot;font-size: 10px&quot;&gt;P00&lt;/font&gt;" style="ellipse;whiteSpace=wrap;html=1;aspect=fixed;" vertex="1" parent="1">
          <mxGeometry x="833" y="350" width="20" height="20" as="geometry" />
        </mxCell>
        <mxCell id="DA8I_6xMAiAlv4DQ0YJ2-351" value="35" style="text;html=1;align=center;verticalAlign=middle;resizable=0;points=[];autosize=1;fontColor=#000000;" vertex="1" parent="1">
          <mxGeometry x="806" y="350" width="30" height="20" as="geometry" />
        </mxCell>
        <mxCell id="DA8I_6xMAiAlv4DQ0YJ2-353" style="edgeStyle=none;rounded=0;orthogonalLoop=1;jettySize=auto;html=1;entryX=1.029;entryY=0.9;entryDx=0;entryDy=0;entryPerimeter=0;startArrow=none;startFill=0;endArrow=none;endFill=0;fontColor=#000000;" edge="1" parent="1" target="DA8I_6xMAiAlv4DQ0YJ2-291">
          <mxGeometry relative="1" as="geometry">
            <mxPoint x="843" y="350" as="sourcePoint" />
          </mxGeometry>
        </mxCell>
        <mxCell id="DA8I_6xMAiAlv4DQ0YJ2-354" value="4" style="edgeLabel;html=1;align=center;verticalAlign=middle;resizable=0;points=[];fontColor=#000000;" vertex="1" connectable="0" parent="DA8I_6xMAiAlv4DQ0YJ2-353">
          <mxGeometry x="0.1973" y="-1" relative="1" as="geometry">
            <mxPoint as="offset" />
          </mxGeometry>
        </mxCell>
        <mxCell id="DA8I_6xMAiAlv4DQ0YJ2-352" value="45" style="text;html=1;align=center;verticalAlign=middle;resizable=0;points=[];autosize=1;fontColor=#000000;" vertex="1" parent="1">
          <mxGeometry x="825" y="370" width="30" height="20" as="geometry" />
        </mxCell>
        <mxCell id="DA8I_6xMAiAlv4DQ0YJ2-355" value="&amp;nbsp; &amp;nbsp; &amp;nbsp; &amp;nbsp;19" style="text;html=1;align=center;verticalAlign=middle;resizable=0;points=[];autosize=1;fontColor=#000000;" vertex="1" parent="1">
          <mxGeometry x="824" y="275" width="50" height="20" as="geometry" />
        </mxCell>
        <mxCell id="DA8I_6xMAiAlv4DQ0YJ2-356" value="&lt;span style=&quot;font-size: 10px&quot;&gt;O10&lt;/span&gt;" style="ellipse;whiteSpace=wrap;html=1;aspect=fixed;" vertex="1" parent="1">
          <mxGeometry x="761" y="350" width="20" height="20" as="geometry" />
        </mxCell>
        <mxCell id="DA8I_6xMAiAlv4DQ0YJ2-357" value="45" style="text;html=1;align=center;verticalAlign=middle;resizable=0;points=[];autosize=1;fontColor=#000000;" vertex="1" parent="1">
          <mxGeometry x="734" y="350" width="30" height="20" as="geometry" />
        </mxCell>
        <mxCell id="DA8I_6xMAiAlv4DQ0YJ2-358" value="&amp;gt;45" style="text;html=1;align=center;verticalAlign=middle;resizable=0;points=[];autosize=1;fontColor=#000000;" vertex="1" parent="1">
          <mxGeometry x="751" y="373" width="40" height="20" as="geometry" />
        </mxCell>
        <mxCell id="DA8I_6xMAiAlv4DQ0YJ2-361" value="20" style="text;html=1;align=center;verticalAlign=middle;resizable=0;points=[];autosize=1;fontColor=#000000;" vertex="1" parent="1">
          <mxGeometry x="775" y="280" width="30" height="20" as="geometry" />
        </mxCell>
        <mxCell id="DA8I_6xMAiAlv4DQ0YJ2-363" value="21" style="text;html=1;align=center;verticalAlign=middle;resizable=0;points=[];autosize=1;fontColor=#000000;" vertex="1" parent="1">
          <mxGeometry x="161" y="277" width="30" height="20" as="geometry" />
        </mxCell>
        <mxCell id="DA8I_6xMAiAlv4DQ0YJ2-367" style="edgeStyle=none;rounded=0;orthogonalLoop=1;jettySize=auto;html=1;entryX=-0.055;entryY=0.55;entryDx=0;entryDy=0;entryPerimeter=0;startArrow=none;startFill=0;endArrow=none;endFill=0;fontColor=#000000;" edge="1" parent="1" source="DA8I_6xMAiAlv4DQ0YJ2-364" target="DA8I_6xMAiAlv4DQ0YJ2-363">
          <mxGeometry relative="1" as="geometry" />
        </mxCell>
        <mxCell id="DA8I_6xMAiAlv4DQ0YJ2-368" value="4" style="edgeLabel;html=1;align=center;verticalAlign=middle;resizable=0;points=[];fontColor=#000000;" vertex="1" connectable="0" parent="DA8I_6xMAiAlv4DQ0YJ2-367">
          <mxGeometry x="-0.1022" y="-1" relative="1" as="geometry">
            <mxPoint as="offset" />
          </mxGeometry>
        </mxCell>
        <mxCell id="DA8I_6xMAiAlv4DQ0YJ2-364" value="&lt;font style=&quot;font-size: 10px&quot;&gt;I00&lt;/font&gt;" style="ellipse;whiteSpace=wrap;html=1;aspect=fixed;" vertex="1" parent="1">
          <mxGeometry x="155" y="350" width="20" height="20" as="geometry" />
        </mxCell>
        <mxCell id="DA8I_6xMAiAlv4DQ0YJ2-365" value="35" style="text;html=1;align=center;verticalAlign=middle;resizable=0;points=[];autosize=1;fontColor=#000000;" vertex="1" parent="1">
          <mxGeometry x="128" y="350" width="30" height="20" as="geometry" />
        </mxCell>
        <mxCell id="DA8I_6xMAiAlv4DQ0YJ2-366" value="45" style="text;html=1;align=center;verticalAlign=middle;resizable=0;points=[];autosize=1;fontColor=#000000;" vertex="1" parent="1">
          <mxGeometry x="147" y="370" width="30" height="20" as="geometry" />
        </mxCell>
        <mxCell id="DA8I_6xMAiAlv4DQ0YJ2-369" style="edgeStyle=none;rounded=0;orthogonalLoop=1;jettySize=auto;html=1;exitX=1;exitY=1;exitDx=0;exitDy=0;entryX=1;entryY=0.5;entryDx=0;entryDy=0;startArrow=none;startFill=0;endArrow=none;endFill=0;fontColor=#000000;" edge="1" parent="1" source="DA8I_6xMAiAlv4DQ0YJ2-364" target="DA8I_6xMAiAlv4DQ0YJ2-364">
          <mxGeometry relative="1" as="geometry" />
        </mxCell>
        <mxCell id="DA8I_6xMAiAlv4DQ0YJ2-372" value="&lt;font style=&quot;font-size: 10px&quot;&gt;R10&lt;/font&gt;" style="ellipse;whiteSpace=wrap;html=1;aspect=fixed;" vertex="1" parent="1">
          <mxGeometry x="1132" y="350" width="20" height="20" as="geometry" />
        </mxCell>
        <mxCell id="DA8I_6xMAiAlv4DQ0YJ2-373" value="45" style="text;html=1;align=center;verticalAlign=middle;resizable=0;points=[];autosize=1;fontColor=#000000;" vertex="1" parent="1">
          <mxGeometry x="1105" y="350" width="30" height="20" as="geometry" />
        </mxCell>
        <mxCell id="DA8I_6xMAiAlv4DQ0YJ2-374" value="&amp;nbsp; &amp;gt;45" style="text;html=1;align=center;verticalAlign=middle;resizable=0;points=[];autosize=1;fontColor=#000000;" vertex="1" parent="1">
          <mxGeometry x="1119" y="370" width="40" height="20" as="geometry" />
        </mxCell>
        <mxCell id="DA8I_6xMAiAlv4DQ0YJ2-376" style="edgeStyle=none;rounded=0;orthogonalLoop=1;jettySize=auto;html=1;entryX=0.5;entryY=0;entryDx=0;entryDy=0;startArrow=none;startFill=0;endArrow=none;endFill=0;fontColor=#000000;exitX=0.125;exitY=1.018;exitDx=0;exitDy=0;exitPerimeter=0;" edge="1" parent="1" source="DA8I_6xMAiAlv4DQ0YJ2-375" target="DA8I_6xMAiAlv4DQ0YJ2-372">
          <mxGeometry relative="1" as="geometry" />
        </mxCell>
        <mxCell id="DA8I_6xMAiAlv4DQ0YJ2-377" value="2" style="edgeLabel;html=1;align=center;verticalAlign=middle;resizable=0;points=[];fontColor=#000000;" vertex="1" connectable="0" parent="DA8I_6xMAiAlv4DQ0YJ2-376">
          <mxGeometry x="-0.1229" y="1" relative="1" as="geometry">
            <mxPoint as="offset" />
          </mxGeometry>
        </mxCell>
        <mxCell id="DA8I_6xMAiAlv4DQ0YJ2-375" value="&amp;nbsp;22" style="text;html=1;align=center;verticalAlign=middle;resizable=0;points=[];autosize=1;fontColor=#000000;" vertex="1" parent="1">
          <mxGeometry x="1125" y="270" width="30" height="20" as="geometry" />
        </mxCell>
        <mxCell id="DA8I_6xMAiAlv4DQ0YJ2-382" style="edgeStyle=none;rounded=0;orthogonalLoop=1;jettySize=auto;html=1;entryX=0.5;entryY=0;entryDx=0;entryDy=0;startArrow=none;startFill=0;endArrow=none;endFill=0;fontColor=#000000;exitX=0.5;exitY=1;exitDx=0;exitDy=0;" edge="1" parent="1" source="DA8I_6xMAiAlv4DQ0YJ2-221" target="DA8I_6xMAiAlv4DQ0YJ2-379">
          <mxGeometry relative="1" as="geometry" />
        </mxCell>
        <mxCell id="DA8I_6xMAiAlv4DQ0YJ2-383" value="5" style="edgeLabel;html=1;align=center;verticalAlign=middle;resizable=0;points=[];fontColor=#000000;" vertex="1" connectable="0" parent="DA8I_6xMAiAlv4DQ0YJ2-382">
          <mxGeometry x="0.1021" y="-2" relative="1" as="geometry">
            <mxPoint as="offset" />
          </mxGeometry>
        </mxCell>
        <mxCell id="DA8I_6xMAiAlv4DQ0YJ2-378" value="23" style="text;html=1;align=center;verticalAlign=middle;resizable=0;points=[];autosize=1;fontColor=#000000;" vertex="1" parent="1">
          <mxGeometry x="529" y="279" width="30" height="20" as="geometry" />
        </mxCell>
        <mxCell id="DA8I_6xMAiAlv4DQ0YJ2-379" value="&lt;font style=&quot;font-size: 10px&quot;&gt;M00&lt;/font&gt;" style="ellipse;whiteSpace=wrap;html=1;aspect=fixed;" vertex="1" parent="1">
          <mxGeometry x="518" y="350" width="20" height="20" as="geometry" />
        </mxCell>
        <mxCell id="DA8I_6xMAiAlv4DQ0YJ2-380" value="37" style="text;html=1;align=center;verticalAlign=middle;resizable=0;points=[];autosize=1;fontColor=#000000;" vertex="1" parent="1">
          <mxGeometry x="491" y="350" width="30" height="20" as="geometry" />
        </mxCell>
        <mxCell id="DA8I_6xMAiAlv4DQ0YJ2-381" value="48&lt;br&gt;&amp;gt;45" style="text;html=1;align=center;verticalAlign=middle;resizable=0;points=[];autosize=1;fontColor=#000000;" vertex="1" parent="1">
          <mxGeometry x="505" y="365" width="40" height="30" as="geometry" />
        </mxCell>
        <mxCell id="DA8I_6xMAiAlv4DQ0YJ2-384" value="24" style="text;html=1;align=center;verticalAlign=middle;resizable=0;points=[];autosize=1;fontColor=#000000;" vertex="1" parent="1">
          <mxGeometry x="73" y="279" width="30" height="20" as="geometry" />
        </mxCell>
        <mxCell id="DA8I_6xMAiAlv4DQ0YJ2-389" style="edgeStyle=none;rounded=0;orthogonalLoop=1;jettySize=auto;html=1;entryX=-0.033;entryY=0.7;entryDx=0;entryDy=0;entryPerimeter=0;startArrow=none;startFill=0;endArrow=none;endFill=0;fontColor=#000000;" edge="1" parent="1" source="DA8I_6xMAiAlv4DQ0YJ2-385" target="DA8I_6xMAiAlv4DQ0YJ2-384">
          <mxGeometry relative="1" as="geometry" />
        </mxCell>
        <mxCell id="DA8I_6xMAiAlv4DQ0YJ2-390" value="5" style="edgeLabel;html=1;align=center;verticalAlign=middle;resizable=0;points=[];fontColor=#000000;" vertex="1" connectable="0" parent="DA8I_6xMAiAlv4DQ0YJ2-389">
          <mxGeometry x="0.0263" y="3" relative="1" as="geometry">
            <mxPoint as="offset" />
          </mxGeometry>
        </mxCell>
        <mxCell id="DA8I_6xMAiAlv4DQ0YJ2-385" value="&lt;font style=&quot;font-size: 10px&quot;&gt;H00&lt;/font&gt;" style="ellipse;whiteSpace=wrap;html=1;aspect=fixed;" vertex="1" parent="1">
          <mxGeometry x="60" y="350" width="20" height="20" as="geometry" />
        </mxCell>
        <mxCell id="DA8I_6xMAiAlv4DQ0YJ2-386" value="37" style="text;html=1;align=center;verticalAlign=middle;resizable=0;points=[];autosize=1;fontColor=#000000;" vertex="1" parent="1">
          <mxGeometry x="33" y="350" width="30" height="20" as="geometry" />
        </mxCell>
        <mxCell id="DA8I_6xMAiAlv4DQ0YJ2-387" value="48&lt;br&gt;&amp;gt;45" style="text;html=1;align=center;verticalAlign=middle;resizable=0;points=[];autosize=1;fontColor=#000000;" vertex="1" parent="1">
          <mxGeometry x="47" y="365" width="40" height="30" as="geometry" />
        </mxCell>
        <mxCell id="DA8I_6xMAiAlv4DQ0YJ2-388" style="edgeStyle=none;rounded=0;orthogonalLoop=1;jettySize=auto;html=1;exitX=1;exitY=1;exitDx=0;exitDy=0;entryX=1;entryY=0.5;entryDx=0;entryDy=0;startArrow=none;startFill=0;endArrow=none;endFill=0;fontColor=#000000;" edge="1" parent="1" source="DA8I_6xMAiAlv4DQ0YJ2-385" target="DA8I_6xMAiAlv4DQ0YJ2-385">
          <mxGeometry relative="1" as="geometry" />
        </mxCell>
        <mxCell id="DA8I_6xMAiAlv4DQ0YJ2-391" value="25" style="text;html=1;align=center;verticalAlign=middle;resizable=0;points=[];autosize=1;fontColor=#000000;" vertex="1" parent="1">
          <mxGeometry x="355" y="120" width="30" height="20" as="geometry" />
        </mxCell>
        <mxCell id="DA8I_6xMAiAlv4DQ0YJ2-392" value="&lt;font style=&quot;font-size: 10px&quot;&gt;N00&lt;/font&gt;" style="ellipse;whiteSpace=wrap;html=1;aspect=fixed;" vertex="1" parent="1">
          <mxGeometry x="601" y="350" width="20" height="20" as="geometry" />
        </mxCell>
        <mxCell id="DA8I_6xMAiAlv4DQ0YJ2-393" value="45" style="text;html=1;align=center;verticalAlign=middle;resizable=0;points=[];autosize=1;fontColor=#000000;" vertex="1" parent="1">
          <mxGeometry x="593" y="370" width="30" height="20" as="geometry" />
        </mxCell>
        <mxCell id="DA8I_6xMAiAlv4DQ0YJ2-394" value="34" style="text;html=1;align=center;verticalAlign=middle;resizable=0;points=[];autosize=1;fontColor=#000000;" vertex="1" parent="1">
          <mxGeometry x="582.5" y="335" width="30" height="20" as="geometry" />
        </mxCell>
        <mxCell id="DA8I_6xMAiAlv4DQ0YJ2-397" value="26" style="text;html=1;align=center;verticalAlign=middle;resizable=0;points=[];autosize=1;fontColor=#000000;" vertex="1" parent="1">
          <mxGeometry x="614" y="281" width="30" height="20" as="geometry" />
        </mxCell>
        <mxCell id="DA8I_6xMAiAlv4DQ0YJ2-402" style="edgeStyle=none;rounded=0;orthogonalLoop=1;jettySize=auto;html=1;entryX=1.067;entryY=1;entryDx=0;entryDy=0;entryPerimeter=0;startArrow=none;startFill=0;endArrow=none;endFill=0;fontColor=#000000;" edge="1" parent="1" source="DA8I_6xMAiAlv4DQ0YJ2-399" target="DA8I_6xMAiAlv4DQ0YJ2-294">
          <mxGeometry relative="1" as="geometry" />
        </mxCell>
        <mxCell id="DA8I_6xMAiAlv4DQ0YJ2-404" value="4" style="edgeLabel;html=1;align=center;verticalAlign=middle;resizable=0;points=[];fontColor=#000000;" vertex="1" connectable="0" parent="DA8I_6xMAiAlv4DQ0YJ2-402">
          <mxGeometry x="0.1103" y="-2" relative="1" as="geometry">
            <mxPoint as="offset" />
          </mxGeometry>
        </mxCell>
        <mxCell id="DA8I_6xMAiAlv4DQ0YJ2-399" value="&lt;font style=&quot;font-size: 10px&quot;&gt;Q00&lt;/font&gt;" style="ellipse;whiteSpace=wrap;html=1;aspect=fixed;" vertex="1" parent="1">
          <mxGeometry x="944" y="353" width="20" height="20" as="geometry" />
        </mxCell>
        <mxCell id="DA8I_6xMAiAlv4DQ0YJ2-400" value="38" style="text;html=1;align=center;verticalAlign=middle;resizable=0;points=[];autosize=1;fontColor=#000000;" vertex="1" parent="1">
          <mxGeometry x="917" y="353" width="30" height="20" as="geometry" />
        </mxCell>
        <mxCell id="DA8I_6xMAiAlv4DQ0YJ2-401" value="48&lt;br&gt;&amp;gt;45" style="text;html=1;align=center;verticalAlign=middle;resizable=0;points=[];autosize=1;fontColor=#000000;" vertex="1" parent="1">
          <mxGeometry x="931" y="368" width="40" height="30" as="geometry" />
        </mxCell>
        <mxCell id="DA8I_6xMAiAlv4DQ0YJ2-403" value="27" style="text;html=1;align=center;verticalAlign=middle;resizable=0;points=[];autosize=1;fontColor=#000000;" vertex="1" parent="1">
          <mxGeometry x="953" y="278" width="30" height="20" as="geometry" />
        </mxCell>
        <mxCell id="DA8I_6xMAiAlv4DQ0YJ2-405" value="&lt;font style=&quot;font-size: 10px&quot;&gt;I10&lt;/font&gt;" style="ellipse;whiteSpace=wrap;html=1;aspect=fixed;" vertex="1" parent="1">
          <mxGeometry x="202" y="350" width="20" height="20" as="geometry" />
        </mxCell>
        <mxCell id="DA8I_6xMAiAlv4DQ0YJ2-406" value="40" style="text;html=1;align=center;verticalAlign=middle;resizable=0;points=[];autosize=1;fontColor=#000000;" vertex="1" parent="1">
          <mxGeometry x="175" y="350" width="30" height="20" as="geometry" />
        </mxCell>
        <mxCell id="DA8I_6xMAiAlv4DQ0YJ2-407" value="70&lt;br&gt;&amp;gt;45" style="text;html=1;align=center;verticalAlign=middle;resizable=0;points=[];autosize=1;fontColor=#000000;" vertex="1" parent="1">
          <mxGeometry x="189" y="365" width="40" height="30" as="geometry" />
        </mxCell>
        <mxCell id="DA8I_6xMAiAlv4DQ0YJ2-408" style="edgeStyle=none;rounded=0;orthogonalLoop=1;jettySize=auto;html=1;exitX=1;exitY=1;exitDx=0;exitDy=0;entryX=1;entryY=0.5;entryDx=0;entryDy=0;startArrow=none;startFill=0;endArrow=none;endFill=0;fontColor=#000000;" edge="1" parent="1" source="DA8I_6xMAiAlv4DQ0YJ2-405" target="DA8I_6xMAiAlv4DQ0YJ2-405">
          <mxGeometry relative="1" as="geometry" />
        </mxCell>
        <mxCell id="DA8I_6xMAiAlv4DQ0YJ2-409" value="28" style="text;html=1;align=center;verticalAlign=middle;resizable=0;points=[];autosize=1;fontColor=#000000;" vertex="1" parent="1">
          <mxGeometry x="214" y="271" width="30" height="20" as="geometry" />
        </mxCell>
        <mxCell id="DA8I_6xMAiAlv4DQ0YJ2-410" style="edgeStyle=none;rounded=0;orthogonalLoop=1;jettySize=auto;html=1;entryX=0.5;entryY=0;entryDx=0;entryDy=0;startArrow=none;startFill=0;endArrow=none;endFill=0;fontColor=#000000;exitX=1.133;exitY=0.95;exitDx=0;exitDy=0;exitPerimeter=0;" edge="1" parent="1" source="DA8I_6xMAiAlv4DQ0YJ2-194" target="DA8I_6xMAiAlv4DQ0YJ2-405">
          <mxGeometry relative="1" as="geometry" />
        </mxCell>
        <mxCell id="DA8I_6xMAiAlv4DQ0YJ2-411" value="3" style="edgeLabel;html=1;align=center;verticalAlign=middle;resizable=0;points=[];fontColor=#000000;" vertex="1" connectable="0" parent="DA8I_6xMAiAlv4DQ0YJ2-410">
          <mxGeometry x="0.05" y="1" relative="1" as="geometry">
            <mxPoint as="offset" />
          </mxGeometry>
        </mxCell>
        <mxCell id="DA8I_6xMAiAlv4DQ0YJ2-412" value="&lt;font style=&quot;font-size: 10px&quot;&gt;H10&lt;/font&gt;" style="ellipse;whiteSpace=wrap;html=1;aspect=fixed;" vertex="1" parent="1">
          <mxGeometry x="112" y="353" width="20" height="20" as="geometry" />
        </mxCell>
        <mxCell id="DA8I_6xMAiAlv4DQ0YJ2-413" value="43" style="text;html=1;align=center;verticalAlign=middle;resizable=0;points=[];autosize=1;fontColor=#000000;" vertex="1" parent="1">
          <mxGeometry x="85" y="353" width="30" height="20" as="geometry" />
        </mxCell>
        <mxCell id="DA8I_6xMAiAlv4DQ0YJ2-414" value="73&lt;br&gt;&amp;gt;45" style="text;html=1;align=center;verticalAlign=middle;resizable=0;points=[];autosize=1;fontColor=#000000;" vertex="1" parent="1">
          <mxGeometry x="99" y="368" width="40" height="30" as="geometry" />
        </mxCell>
        <mxCell id="DA8I_6xMAiAlv4DQ0YJ2-415" style="edgeStyle=none;rounded=0;orthogonalLoop=1;jettySize=auto;html=1;exitX=1;exitY=1;exitDx=0;exitDy=0;entryX=1;entryY=0.5;entryDx=0;entryDy=0;startArrow=none;startFill=0;endArrow=none;endFill=0;fontColor=#000000;" edge="1" parent="1" source="DA8I_6xMAiAlv4DQ0YJ2-412" target="DA8I_6xMAiAlv4DQ0YJ2-412">
          <mxGeometry relative="1" as="geometry" />
        </mxCell>
        <mxCell id="DA8I_6xMAiAlv4DQ0YJ2-417" value="" style="edgeStyle=none;rounded=0;orthogonalLoop=1;jettySize=auto;html=1;startArrow=none;startFill=0;endArrow=none;endFill=0;fontColor=#000000;entryX=0.5;entryY=0;entryDx=0;entryDy=0;" edge="1" parent="1" target="DA8I_6xMAiAlv4DQ0YJ2-412">
          <mxGeometry relative="1" as="geometry">
            <mxPoint x="118" y="289" as="sourcePoint" />
          </mxGeometry>
        </mxCell>
        <mxCell id="DA8I_6xMAiAlv4DQ0YJ2-418" value="3" style="edgeLabel;html=1;align=center;verticalAlign=middle;resizable=0;points=[];fontColor=#000000;" vertex="1" connectable="0" parent="DA8I_6xMAiAlv4DQ0YJ2-417">
          <mxGeometry x="0.1868" relative="1" as="geometry">
            <mxPoint as="offset" />
          </mxGeometry>
        </mxCell>
        <mxCell id="DA8I_6xMAiAlv4DQ0YJ2-416" value="29" style="text;html=1;align=center;verticalAlign=middle;resizable=0;points=[];autosize=1;fontColor=#000000;" vertex="1" parent="1">
          <mxGeometry x="115" y="281" width="30" height="20" as="geometry" />
        </mxCell>
        <mxCell id="DA8I_6xMAiAlv4DQ0YJ2-419" value="30" style="text;html=1;align=center;verticalAlign=middle;resizable=0;points=[];autosize=1;fontColor=#000000;" vertex="1" parent="1">
          <mxGeometry x="20" y="192" width="30" height="20" as="geometry" />
        </mxCell>
        <mxCell id="DA8I_6xMAiAlv4DQ0YJ2-421" value="32" style="text;html=1;align=center;verticalAlign=middle;resizable=0;points=[];autosize=1;fontColor=#000000;" vertex="1" parent="1">
          <mxGeometry x="412" y="180" width="30" height="20" as="geometry" />
        </mxCell>
        <mxCell id="DA8I_6xMAiAlv4DQ0YJ2-422" value="33" style="text;html=1;align=center;verticalAlign=middle;resizable=0;points=[];autosize=1;fontColor=#000000;" vertex="1" parent="1">
          <mxGeometry x="425" y="278" width="30" height="20" as="geometry" />
        </mxCell>
        <mxCell id="DA8I_6xMAiAlv4DQ0YJ2-427" style="edgeStyle=none;rounded=0;orthogonalLoop=1;jettySize=auto;html=1;entryX=-0.067;entryY=0.45;entryDx=0;entryDy=0;entryPerimeter=0;startArrow=none;startFill=0;endArrow=none;endFill=0;fontColor=#000000;" edge="1" parent="1" source="DA8I_6xMAiAlv4DQ0YJ2-423" target="DA8I_6xMAiAlv4DQ0YJ2-422">
          <mxGeometry relative="1" as="geometry" />
        </mxCell>
        <mxCell id="DA8I_6xMAiAlv4DQ0YJ2-428" value="4" style="edgeLabel;html=1;align=center;verticalAlign=middle;resizable=0;points=[];fontColor=#000000;" vertex="1" connectable="0" parent="DA8I_6xMAiAlv4DQ0YJ2-427">
          <mxGeometry x="-0.0178" y="-1" relative="1" as="geometry">
            <mxPoint as="offset" />
          </mxGeometry>
        </mxCell>
        <mxCell id="DA8I_6xMAiAlv4DQ0YJ2-423" value="&lt;font style=&quot;font-size: 10px&quot;&gt;L00&lt;/font&gt;" style="ellipse;whiteSpace=wrap;html=1;aspect=fixed;" vertex="1" parent="1">
          <mxGeometry x="417" y="350" width="20" height="20" as="geometry" />
        </mxCell>
        <mxCell id="DA8I_6xMAiAlv4DQ0YJ2-424" value="43" style="text;html=1;align=center;verticalAlign=middle;resizable=0;points=[];autosize=1;fontColor=#000000;" vertex="1" parent="1">
          <mxGeometry x="390" y="350" width="30" height="20" as="geometry" />
        </mxCell>
        <mxCell id="DA8I_6xMAiAlv4DQ0YJ2-425" value="53&lt;br&gt;&amp;gt;45" style="text;html=1;align=center;verticalAlign=middle;resizable=0;points=[];autosize=1;fontColor=#000000;" vertex="1" parent="1">
          <mxGeometry x="404" y="365" width="40" height="30" as="geometry" />
        </mxCell>
        <mxCell id="DA8I_6xMAiAlv4DQ0YJ2-426" style="edgeStyle=none;rounded=0;orthogonalLoop=1;jettySize=auto;html=1;exitX=1;exitY=1;exitDx=0;exitDy=0;entryX=1;entryY=0.5;entryDx=0;entryDy=0;startArrow=none;startFill=0;endArrow=none;endFill=0;fontColor=#000000;" edge="1" parent="1" source="DA8I_6xMAiAlv4DQ0YJ2-423" target="DA8I_6xMAiAlv4DQ0YJ2-423">
          <mxGeometry relative="1" as="geometry" />
        </mxCell>
        <mxCell id="DA8I_6xMAiAlv4DQ0YJ2-429" value="34" style="text;html=1;align=center;verticalAlign=middle;resizable=0;points=[];autosize=1;fontColor=#000000;" vertex="1" parent="1">
          <mxGeometry x="315" y="280" width="30" height="20" as="geometry" />
        </mxCell>
        <mxCell id="DA8I_6xMAiAlv4DQ0YJ2-430" value="&lt;font style=&quot;font-size: 10px&quot;&gt;K00&lt;/font&gt;" style="ellipse;whiteSpace=wrap;html=1;aspect=fixed;" vertex="1" parent="1">
          <mxGeometry x="306" y="355" width="20" height="20" as="geometry" />
        </mxCell>
        <mxCell id="DA8I_6xMAiAlv4DQ0YJ2-434" style="edgeStyle=none;rounded=0;orthogonalLoop=1;jettySize=auto;html=1;entryX=1.067;entryY=1.05;entryDx=0;entryDy=0;entryPerimeter=0;startArrow=none;startFill=0;endArrow=none;endFill=0;fontColor=#000000;exitX=1.167;exitY=-0.05;exitDx=0;exitDy=0;exitPerimeter=0;" edge="1" parent="1" source="DA8I_6xMAiAlv4DQ0YJ2-431" target="DA8I_6xMAiAlv4DQ0YJ2-275">
          <mxGeometry relative="1" as="geometry" />
        </mxCell>
        <mxCell id="DA8I_6xMAiAlv4DQ0YJ2-435" value="5" style="edgeLabel;html=1;align=center;verticalAlign=middle;resizable=0;points=[];fontColor=#000000;" vertex="1" connectable="0" parent="DA8I_6xMAiAlv4DQ0YJ2-434">
          <mxGeometry x="-0.2082" y="2" relative="1" as="geometry">
            <mxPoint as="offset" />
          </mxGeometry>
        </mxCell>
        <mxCell id="DA8I_6xMAiAlv4DQ0YJ2-431" value="42" style="text;html=1;align=center;verticalAlign=middle;resizable=0;points=[];autosize=1;fontColor=#000000;" vertex="1" parent="1">
          <mxGeometry x="279" y="355" width="30" height="20" as="geometry" />
        </mxCell>
        <mxCell id="DA8I_6xMAiAlv4DQ0YJ2-432" value="53&lt;br&gt;&amp;gt;45" style="text;html=1;align=center;verticalAlign=middle;resizable=0;points=[];autosize=1;fontColor=#000000;" vertex="1" parent="1">
          <mxGeometry x="293" y="370" width="40" height="30" as="geometry" />
        </mxCell>
        <mxCell id="DA8I_6xMAiAlv4DQ0YJ2-433" style="edgeStyle=none;rounded=0;orthogonalLoop=1;jettySize=auto;html=1;exitX=1;exitY=1;exitDx=0;exitDy=0;entryX=1;entryY=0.5;entryDx=0;entryDy=0;startArrow=none;startFill=0;endArrow=none;endFill=0;fontColor=#000000;" edge="1" parent="1" source="DA8I_6xMAiAlv4DQ0YJ2-430" target="DA8I_6xMAiAlv4DQ0YJ2-430">
          <mxGeometry relative="1" as="geometry" />
        </mxCell>
        <mxCell id="DA8I_6xMAiAlv4DQ0YJ2-437" value="&lt;font style=&quot;font-size: 10px&quot;&gt;G00&lt;/font&gt;" style="ellipse;whiteSpace=wrap;html=1;aspect=fixed;" vertex="1" parent="1">
          <mxGeometry x="-43" y="350" width="20" height="20" as="geometry" />
        </mxCell>
        <mxCell id="DA8I_6xMAiAlv4DQ0YJ2-442" style="edgeStyle=none;rounded=0;orthogonalLoop=1;jettySize=auto;html=1;entryX=-0.067;entryY=0.4;entryDx=0;entryDy=0;entryPerimeter=0;startArrow=none;startFill=0;endArrow=none;endFill=0;fontColor=#000000;exitX=0.5;exitY=0;exitDx=0;exitDy=0;" edge="1" parent="1" source="DA8I_6xMAiAlv4DQ0YJ2-437" target="DA8I_6xMAiAlv4DQ0YJ2-441">
          <mxGeometry relative="1" as="geometry" />
        </mxCell>
        <mxCell id="DA8I_6xMAiAlv4DQ0YJ2-443" value="5" style="edgeLabel;html=1;align=center;verticalAlign=middle;resizable=0;points=[];fontColor=#000000;" vertex="1" connectable="0" parent="DA8I_6xMAiAlv4DQ0YJ2-442">
          <mxGeometry x="0.0942" y="2" relative="1" as="geometry">
            <mxPoint as="offset" />
          </mxGeometry>
        </mxCell>
        <mxCell id="DA8I_6xMAiAlv4DQ0YJ2-438" value="54" style="text;html=1;align=center;verticalAlign=middle;resizable=0;points=[];autosize=1;fontColor=#000000;" vertex="1" parent="1">
          <mxGeometry x="-70" y="350" width="30" height="20" as="geometry" />
        </mxCell>
        <mxCell id="DA8I_6xMAiAlv4DQ0YJ2-439" value="&lt;br&gt;&amp;gt;45" style="text;html=1;align=center;verticalAlign=middle;resizable=0;points=[];autosize=1;fontColor=#000000;" vertex="1" parent="1">
          <mxGeometry x="-56" y="360" width="40" height="30" as="geometry" />
        </mxCell>
        <mxCell id="DA8I_6xMAiAlv4DQ0YJ2-440" style="edgeStyle=none;rounded=0;orthogonalLoop=1;jettySize=auto;html=1;exitX=1;exitY=1;exitDx=0;exitDy=0;entryX=1;entryY=0.5;entryDx=0;entryDy=0;startArrow=none;startFill=0;endArrow=none;endFill=0;fontColor=#000000;" edge="1" parent="1" source="DA8I_6xMAiAlv4DQ0YJ2-437" target="DA8I_6xMAiAlv4DQ0YJ2-437">
          <mxGeometry relative="1" as="geometry" />
        </mxCell>
        <mxCell id="DA8I_6xMAiAlv4DQ0YJ2-441" value="35" style="text;html=1;align=center;verticalAlign=middle;resizable=0;points=[];autosize=1;fontColor=#000000;" vertex="1" parent="1">
          <mxGeometry x="-28" y="280" width="30" height="20" as="geometry" />
        </mxCell>
        <mxCell id="DA8I_6xMAiAlv4DQ0YJ2-444" value="36" style="text;html=1;align=center;verticalAlign=middle;resizable=0;points=[];autosize=1;fontColor=#000000;" vertex="1" parent="1">
          <mxGeometry x="17" y="280" width="30" height="20" as="geometry" />
        </mxCell>
        <mxCell id="DA8I_6xMAiAlv4DQ0YJ2-448" value="4" style="edgeStyle=none;rounded=0;orthogonalLoop=1;jettySize=auto;html=1;entryX=0.133;entryY=0.5;entryDx=0;entryDy=0;entryPerimeter=0;startArrow=none;startFill=0;endArrow=none;endFill=0;fontColor=#000000;" edge="1" parent="1" source="DA8I_6xMAiAlv4DQ0YJ2-445" target="DA8I_6xMAiAlv4DQ0YJ2-444">
          <mxGeometry relative="1" as="geometry" />
        </mxCell>
        <mxCell id="DA8I_6xMAiAlv4DQ0YJ2-445" value="&lt;font style=&quot;font-size: 10px&quot;&gt;G10&lt;/font&gt;" style="ellipse;whiteSpace=wrap;html=1;aspect=fixed;" vertex="1" parent="1">
          <mxGeometry x="11" y="350" width="20" height="20" as="geometry" />
        </mxCell>
        <mxCell id="DA8I_6xMAiAlv4DQ0YJ2-446" value="55" style="text;html=1;align=center;verticalAlign=middle;resizable=0;points=[];autosize=1;fontColor=#000000;" vertex="1" parent="1">
          <mxGeometry x="-16" y="350" width="30" height="20" as="geometry" />
        </mxCell>
        <mxCell id="DA8I_6xMAiAlv4DQ0YJ2-447" style="edgeStyle=none;rounded=0;orthogonalLoop=1;jettySize=auto;html=1;exitX=1;exitY=1;exitDx=0;exitDy=0;entryX=1;entryY=0.5;entryDx=0;entryDy=0;startArrow=none;startFill=0;endArrow=none;endFill=0;fontColor=#000000;" edge="1" parent="1" source="DA8I_6xMAiAlv4DQ0YJ2-445" target="DA8I_6xMAiAlv4DQ0YJ2-445">
          <mxGeometry relative="1" as="geometry" />
        </mxCell>
        <mxCell id="DA8I_6xMAiAlv4DQ0YJ2-449" value="&lt;br&gt;&amp;gt;45" style="text;html=1;align=center;verticalAlign=middle;resizable=0;points=[];autosize=1;fontColor=#000000;" vertex="1" parent="1">
          <mxGeometry y="355" width="40" height="30" as="geometry" />
        </mxCell>
        <mxCell id="DA8I_6xMAiAlv4DQ0YJ2-450" value="✖️" style="text;html=1;align=center;verticalAlign=middle;resizable=0;points=[];autosize=1;fontColor=#000000;" vertex="1" parent="1">
          <mxGeometry x="265" y="200" width="30" height="20" as="geometry" />
        </mxCell>
        <mxCell id="DA8I_6xMAiAlv4DQ0YJ2-451" value="&lt;span style=&quot;color: rgba(0 , 0 , 0 , 0) ; font-family: monospace ; font-size: 0px&quot;&gt;%3CmxGraphModel%3E%3Croot%3E%3CmxCell%20id%3D%220%22%2F%3E%3CmxCell%20id%3D%221%22%20parent%3D%220%22%2F%3E%3CmxCell%20id%3D%222%22%20value%3D%22%E2%9C%96%EF%B8%8F%22%20style%3D%22text%3Bhtml%3D1%3Balign%3Dcenter%3BverticalAlign%3Dmiddle%3Bresizable%3D0%3Bpoints%3D%5B%5D%3Bautosize%3D1%3BfontColor%3D%23000000%3B%22%20vertex%3D%221%22%20parent%3D%221%22%3E%3CmxGeometry%20x%3D%22265%22%20y%3D%22200%22%20width%3D%2230%22%20height%3D%2220%22%20as%3D%22geometry%22%2F%3E%3C%2FmxCell%3E%3C%2Froot%3E%3C%2FmxGraphModel%3E&lt;/span&gt;" style="text;html=1;align=center;verticalAlign=middle;resizable=0;points=[];autosize=1;fontColor=#000000;" vertex="1" parent="1">
          <mxGeometry x="350" y="290" width="20" height="20" as="geometry" />
        </mxCell>
        <mxCell id="DA8I_6xMAiAlv4DQ0YJ2-453" value="✖️" style="text;html=1;align=center;verticalAlign=middle;resizable=0;points=[];autosize=1;fontColor=#000000;" vertex="1" parent="1">
          <mxGeometry x="350" y="290" width="30" height="20" as="geometry" />
        </mxCell>
        <mxCell id="DA8I_6xMAiAlv4DQ0YJ2-454" value="✖️" style="text;html=1;align=center;verticalAlign=middle;resizable=0;points=[];autosize=1;fontColor=#000000;" vertex="1" parent="1">
          <mxGeometry x="459" y="290" width="30" height="20" as="geometry" />
        </mxCell>
      </root>
    </mxGraphModel>
  </diagram>
</mxfile>
